<?xml version="1.0" encoding="utf-8" standalone="no"?>
<!DOCTYPE svg PUBLIC "-//W3C//DTD SVG 1.1//EN"
  "http://www.w3.org/Graphics/SVG/1.1/DTD/svg11.dtd">
<!-- Created with matplotlib (https://matplotlib.org/) -->
<svg height="345.6pt" version="1.1" viewBox="0 0 460.8 345.6" width="460.8pt" xmlns="http://www.w3.org/2000/svg" xmlns:xlink="http://www.w3.org/1999/xlink">
 <metadata>
  <rdf:RDF xmlns:cc="http://creativecommons.org/ns#" xmlns:dc="http://purl.org/dc/elements/1.1/" xmlns:rdf="http://www.w3.org/1999/02/22-rdf-syntax-ns#">
   <cc:Work>
    <dc:type rdf:resource="http://purl.org/dc/dcmitype/StillImage"/>
    <dc:date>2021-07-20T23:30:18.863597</dc:date>
    <dc:format>image/svg+xml</dc:format>
    <dc:creator>
     <cc:Agent>
      <dc:title>Matplotlib v3.3.2, https://matplotlib.org/</dc:title>
     </cc:Agent>
    </dc:creator>
   </cc:Work>
  </rdf:RDF>
 </metadata>
 <defs>
  <style type="text/css">*{stroke-linecap:butt;stroke-linejoin:round;}</style>
 </defs>
 <g id="figure_1">
  <g id="patch_1">
   <path d="M 0 345.6 
L 460.8 345.6 
L 460.8 0 
L 0 0 
z
" style="fill:#ffffff;"/>
  </g>
  <g id="axes_1">
   <g id="patch_2">
    <path clip-path="url(#p6167874a27)" d="M 73.832727 258.976331 
L 218.123636 258.976331 
L 218.123636 89.228187 
L 73.832727 89.228187 
z
" style="fill:#87ceeb;stroke:#ffffff;stroke-linejoin:miter;stroke-width:1.5;"/>
   </g>
   <g id="patch_3">
    <path clip-path="url(#p6167874a27)" d="M 254.196364 258.976331 
L 398.487273 258.976331 
L 398.487273 263.017146 
L 254.196364 263.017146 
z
" style="fill:#8b0000;stroke:#ffffff;stroke-linejoin:miter;stroke-width:1.5;"/>
   </g>
   <g id="LineCollection_1">
    <path clip-path="url(#p6167874a27)" d="M 145.978182 121.926309 
L 145.978182 53.568 
" style="fill:none;stroke:#000000;stroke-width:2.25;"/>
   </g>
   <g id="LineCollection_2">
    <path clip-path="url(#p6167874a27)" d="M 326.341818 295.488 
L 326.341818 230.006528 
" style="fill:none;stroke:#000000;stroke-width:2.25;"/>
   </g>
   <g id="line2d_1">
    <defs>
     <path d="M 0 4.5 
C 1.193414 4.5 2.338109 4.025852 3.181981 3.181981 
C 4.025852 2.338109 4.5 1.193414 4.5 0 
C 4.5 -1.193414 4.025852 -2.338109 3.181981 -3.181981 
C 2.338109 -4.025852 1.193414 -4.5 0 -4.5 
C -1.193414 -4.5 -2.338109 -4.025852 -3.181981 -3.181981 
C -4.025852 -2.338109 -4.5 -1.193414 -4.5 0 
C -4.5 1.193414 -4.025852 2.338109 -3.181981 3.181981 
C -2.338109 4.025852 -1.193414 4.5 0 4.5 
z
" id="m405761b176" style="stroke:#000000;"/>
    </defs>
    <g clip-path="url(#p6167874a27)">
     <use style="stroke:#000000;" x="145.978182" xlink:href="#m405761b176" y="89.228187"/>
    </g>
   </g>
   <g id="line2d_2">
    <g clip-path="url(#p6167874a27)">
     <use style="stroke:#000000;" x="326.341818" xlink:href="#m405761b176" y="263.017146"/>
    </g>
   </g>
  </g>
 </g>
 <defs>
  <clipPath id="p6167874a27">
   <rect height="266.112" width="357.12" x="57.6" y="41.472"/>
  </clipPath>
 </defs>
</svg>
