<?xml version="1.0" encoding="utf-8" standalone="no"?>
<!DOCTYPE svg PUBLIC "-//W3C//DTD SVG 1.1//EN"
  "http://www.w3.org/Graphics/SVG/1.1/DTD/svg11.dtd">
<!-- Created with matplotlib (https://matplotlib.org/) -->
<svg height="432pt" version="1.1" viewBox="0 0 648 432" width="648pt" xmlns="http://www.w3.org/2000/svg" xmlns:xlink="http://www.w3.org/1999/xlink">
 <defs>
  <style type="text/css">
*{stroke-linecap:butt;stroke-linejoin:round;}
  </style>
 </defs>
 <g id="figure_1">
  <g id="patch_1">
   <path d="M 0 432 
L 648 432 
L 648 0 
L 0 0 
z
" style="fill:#ffffff;"/>
  </g>
  <g id="axes_1">
   <g id="patch_2">
    <path d="M 81 203.04 
L 228.705882 203.04 
L 228.705882 51.84 
L 81 51.84 
z
" style="fill:#ffffff;"/>
   </g>
   <g id="matplotlib.axis_1"/>
   <g id="matplotlib.axis_2">
    <g id="text_1">
     <!-- $\mu$ -->
     <defs>
      <path d="M -1.3125 -20.796875 
L 13.375 54.6875 
L 22.40625 54.6875 
L 15.765625 20.65625 
Q 15.578125 19.625 15.421875 18.359375 
Q 15.28125 17.09375 15.28125 15.828125 
Q 15.28125 11.28125 18.140625 8.828125 
Q 21 6.390625 26.3125 6.390625 
Q 33.546875 6.390625 37.984375 10.484375 
Q 42.4375 14.59375 44 22.796875 
L 50.203125 54.6875 
L 59.1875 54.6875 
L 51.03125 12.640625 
Q 50.828125 11.71875 50.75 11.03125 
Q 50.6875 10.359375 50.6875 9.8125 
Q 50.6875 8.296875 51.296875 7.59375 
Q 51.90625 6.890625 53.21875 6.890625 
Q 53.71875 6.890625 54.5625 7.125 
Q 55.421875 7.375 56.984375 8.015625 
L 55.609375 0.78125 
Q 53.46875 -0.296875 51.515625 -0.859375 
Q 49.5625 -1.421875 47.703125 -1.421875 
Q 44.484375 -1.421875 42.65625 0.625 
Q 40.828125 2.6875 40.828125 6.296875 
Q 38.09375 2.390625 34.296875 0.484375 
Q 30.515625 -1.421875 25.390625 -1.421875 
Q 20.84375 -1.421875 17.453125 0.671875 
Q 14.0625 2.78125 12.984375 6.203125 
L 7.71875 -20.796875 
z
" id="DejaVuSans-Oblique-956"/>
     </defs>
     <g style="fill:#262626;" transform="translate(69 122.19)scale(0.25 -0.25)">
      <use transform="translate(0 0.3125)" xlink:href="#DejaVuSans-Oblique-956"/>
     </g>
    </g>
   </g>
   <g id="line2d_1">
    <path clip-path="url(#p8f4a9b1025)" d="M 87.713904 60.485396 
L 89.070248 65.346299 
L 90.426592 62.375084 
L 91.782936 73.519221 
L 93.139281 58.712727 
L 94.495625 75.072858 
L 95.851969 72.151688 
L 97.208313 78.23948 
L 98.564657 70.457829 
L 99.921001 71.544583 
L 101.277346 68.947307 
L 102.63369 73.684553 
L 103.990034 73.832015 
L 105.346378 82.754176 
L 106.702722 88.170838 
L 108.059067 82.428227 
L 109.415411 77.145875 
L 110.771755 86.29976 
L 112.128099 90.878204 
L 113.484443 86.223064 
L 114.840788 80.102093 
L 116.197132 88.775509 
L 117.553476 90.710781 
L 118.90982 98.299357 
L 120.266164 91.523783 
L 121.622509 89.674057 
L 122.978853 96.674544 
L 124.335197 97.14564 
L 125.691541 104.824212 
L 127.047885 94.648141 
L 128.404229 108.246182 
L 129.760574 106.702672 
L 131.116918 107.295939 
L 132.473262 103.486061 
L 133.829606 98.406542 
L 135.18595 122.370717 
L 136.542295 112.406632 
L 137.898639 105.825675 
L 139.254983 109.169927 
L 140.611327 116.105835 
L 141.967671 119.925236 
L 143.324016 111.156713 
L 144.68036 118.962309 
L 146.036704 123.455564 
L 147.393048 122.834966 
L 148.749392 125.963757 
L 150.105737 115.331012 
L 151.462081 123.072858 
L 152.818425 126.361474 
L 154.174769 119.663397 
L 155.531113 128.411325 
L 156.887457 130.610428 
L 158.243802 132.365149 
L 159.600146 132.135648 
L 160.95649 132.43132 
L 162.312834 131.829354 
L 163.669178 135.750326 
L 165.025523 131.145596 
L 166.381867 134.982223 
L 167.738211 140.437452 
L 169.094555 138.723751 
L 170.450899 140.692608 
L 171.807244 142.143036 
L 173.163588 142.5465 
L 174.519932 144.912594 
L 175.876276 148.832895 
L 177.23262 144.611565 
L 178.588965 148.288449 
L 179.945309 151.57971 
L 181.301653 154.633041 
L 182.657997 151.63802 
L 184.014341 152.878813 
L 185.370685 154.873723 
L 186.72703 156.955397 
L 188.083374 155.892775 
L 189.439718 155.725789 
L 190.796062 162.550516 
L 192.152406 158.504382 
L 193.508751 158.259084 
L 194.865095 156.719697 
L 196.221439 163.15769 
L 197.577783 169.082488 
L 198.934127 169.63639 
L 200.290472 169.394612 
L 201.646816 171.110051 
L 203.00316 173.597706 
L 204.359504 174.536168 
L 205.715848 171.561022 
L 207.072193 177.013139 
L 208.428537 168.728766 
L 209.784881 184.4572 
L 211.141225 171.669554 
L 212.497569 178.30525 
L 213.853913 186.873179 
L 215.210258 196.167273 
L 216.566602 190.44821 
L 217.922946 183.24007 
L 219.27929 189.374818 
L 220.635634 192.034022 
L 221.991979 195.721265 
" style="fill:none;stroke:#000000;stroke-linecap:round;stroke-width:2.25;"/>
   </g>
   <g id="line2d_2">
    <path clip-path="url(#p8f4a9b1025)" d="M 87.713904 123.401613 
L 89.070248 123.695942 
L 90.426592 126.922562 
L 91.782936 119.423317 
L 93.139281 120.699385 
L 94.495625 124.679901 
L 95.851969 120.174803 
L 97.208313 134.313553 
L 98.564657 131.406389 
L 99.921001 144.894966 
L 101.277346 136.261841 
L 102.63369 128.746752 
L 103.990034 126.969643 
L 105.346378 130.245458 
L 106.702722 134.449044 
L 108.059067 136.81834 
L 109.415411 146.953645 
L 110.771755 135.302034 
L 112.128099 138.553702 
L 113.484443 133.582069 
L 114.840788 139.599146 
L 116.197132 136.732903 
L 117.553476 135.830428 
L 118.90982 151.154253 
L 120.266164 148.748682 
L 121.622509 140.384599 
L 122.978853 137.961505 
L 124.335197 140.24529 
L 125.691541 140.518871 
L 127.047885 146.337797 
L 128.404229 134.125561 
L 129.760574 146.278153 
L 131.116918 146.640931 
L 132.473262 147.486773 
L 133.829606 140.860631 
L 135.18595 154.414929 
L 136.542295 150.243419 
L 137.898639 157.117749 
L 139.254983 153.654358 
L 140.611327 152.680701 
L 141.967671 156.310501 
L 143.324016 151.873561 
L 144.68036 155.317983 
L 146.036704 149.364849 
L 147.393048 156.74901 
L 148.749392 152.168398 
L 150.105737 145.438596 
L 151.462081 157.797932 
L 152.818425 159.193629 
L 154.174769 159.54432 
L 155.531113 159.916453 
L 156.887457 160.233599 
L 158.243802 160.060071 
L 159.600146 163.107109 
L 160.95649 157.765622 
L 162.312834 162.649228 
L 163.669178 160.69077 
L 165.025523 165.373529 
L 166.381867 162.924995 
L 167.738211 162.651704 
L 169.094555 162.518325 
L 170.450899 164.576199 
L 171.807244 166.825986 
L 173.163588 175.282267 
L 174.519932 171.619203 
L 175.876276 165.654318 
L 177.23262 173.569367 
L 178.588965 173.81108 
L 179.945309 170.724554 
L 181.301653 167.333087 
L 182.657997 170.423663 
L 184.014341 172.911002 
L 185.370685 173.553869 
L 186.72703 179.341948 
L 188.083374 175.788589 
L 189.439718 182.412444 
L 190.796062 182.838827 
L 192.152406 182.222217 
L 193.508751 167.616343 
L 194.865095 179.676161 
L 196.221439 177.655543 
L 197.577783 183.247769 
L 198.934127 172.364209 
L 200.290472 179.548657 
L 201.646816 181.778599 
L 203.00316 183.269062 
L 204.359504 180.474743 
L 205.715848 184.177723 
L 207.072193 190.522853 
L 208.428537 182.352027 
L 209.784881 186.584435 
L 211.141225 189.069169 
L 212.497569 183.30429 
L 213.853913 184.500249 
L 215.210258 185.537244 
L 216.566602 187.353171 
L 217.922946 192.710139 
L 219.27929 186.52735 
L 220.635634 173.4337 
L 221.991979 189.471004 
" style="fill:none;stroke:#808080;stroke-linecap:round;stroke-width:2.25;"/>
   </g>
   <g id="patch_3">
    <path d="M 81 203.04 
L 81 51.84 
" style="fill:none;stroke:#262626;stroke-linecap:square;stroke-linejoin:miter;stroke-width:1.875;"/>
   </g>
   <g id="patch_4">
    <path d="M 81 203.04 
L 228.705882 203.04 
" style="fill:none;stroke:#262626;stroke-linecap:square;stroke-linejoin:miter;stroke-width:1.875;"/>
   </g>
   <g id="text_2">
    <!-- signal in -->
    <defs>
     <path d="M 44.28125 53.078125 
L 44.28125 44.578125 
Q 40.484375 46.53125 36.375 47.5 
Q 32.28125 48.484375 27.875 48.484375 
Q 21.1875 48.484375 17.84375 46.4375 
Q 14.5 44.390625 14.5 40.28125 
Q 14.5 37.15625 16.890625 35.375 
Q 19.28125 33.59375 26.515625 31.984375 
L 29.59375 31.296875 
Q 39.15625 29.25 43.1875 25.515625 
Q 47.21875 21.78125 47.21875 15.09375 
Q 47.21875 7.46875 41.1875 3.015625 
Q 35.15625 -1.421875 24.609375 -1.421875 
Q 20.21875 -1.421875 15.453125 -0.5625 
Q 10.6875 0.296875 5.421875 2 
L 5.421875 11.28125 
Q 10.40625 8.6875 15.234375 7.390625 
Q 20.0625 6.109375 24.8125 6.109375 
Q 31.15625 6.109375 34.5625 8.28125 
Q 37.984375 10.453125 37.984375 14.40625 
Q 37.984375 18.0625 35.515625 20.015625 
Q 33.0625 21.96875 24.703125 23.78125 
L 21.578125 24.515625 
Q 13.234375 26.265625 9.515625 29.90625 
Q 5.8125 33.546875 5.8125 39.890625 
Q 5.8125 47.609375 11.28125 51.796875 
Q 16.75 56 26.8125 56 
Q 31.78125 56 36.171875 55.265625 
Q 40.578125 54.546875 44.28125 53.078125 
z
" id="DejaVuSans-115"/>
     <path d="M 9.421875 54.6875 
L 18.40625 54.6875 
L 18.40625 0 
L 9.421875 0 
z
M 9.421875 75.984375 
L 18.40625 75.984375 
L 18.40625 64.59375 
L 9.421875 64.59375 
z
" id="DejaVuSans-105"/>
     <path d="M 45.40625 27.984375 
Q 45.40625 37.75 41.375 43.109375 
Q 37.359375 48.484375 30.078125 48.484375 
Q 22.859375 48.484375 18.828125 43.109375 
Q 14.796875 37.75 14.796875 27.984375 
Q 14.796875 18.265625 18.828125 12.890625 
Q 22.859375 7.515625 30.078125 7.515625 
Q 37.359375 7.515625 41.375 12.890625 
Q 45.40625 18.265625 45.40625 27.984375 
z
M 54.390625 6.78125 
Q 54.390625 -7.171875 48.1875 -13.984375 
Q 42 -20.796875 29.203125 -20.796875 
Q 24.46875 -20.796875 20.265625 -20.09375 
Q 16.0625 -19.390625 12.109375 -17.921875 
L 12.109375 -9.1875 
Q 16.0625 -11.328125 19.921875 -12.34375 
Q 23.78125 -13.375 27.78125 -13.375 
Q 36.625 -13.375 41.015625 -8.765625 
Q 45.40625 -4.15625 45.40625 5.171875 
L 45.40625 9.625 
Q 42.625 4.78125 38.28125 2.390625 
Q 33.9375 0 27.875 0 
Q 17.828125 0 11.671875 7.65625 
Q 5.515625 15.328125 5.515625 27.984375 
Q 5.515625 40.671875 11.671875 48.328125 
Q 17.828125 56 27.875 56 
Q 33.9375 56 38.28125 53.609375 
Q 42.625 51.21875 45.40625 46.390625 
L 45.40625 54.6875 
L 54.390625 54.6875 
z
" id="DejaVuSans-103"/>
     <path d="M 54.890625 33.015625 
L 54.890625 0 
L 45.90625 0 
L 45.90625 32.71875 
Q 45.90625 40.484375 42.875 44.328125 
Q 39.84375 48.1875 33.796875 48.1875 
Q 26.515625 48.1875 22.3125 43.546875 
Q 18.109375 38.921875 18.109375 30.90625 
L 18.109375 0 
L 9.078125 0 
L 9.078125 54.6875 
L 18.109375 54.6875 
L 18.109375 46.1875 
Q 21.34375 51.125 25.703125 53.5625 
Q 30.078125 56 35.796875 56 
Q 45.21875 56 50.046875 50.171875 
Q 54.890625 44.34375 54.890625 33.015625 
z
" id="DejaVuSans-110"/>
     <path d="M 34.28125 27.484375 
Q 23.390625 27.484375 19.1875 25 
Q 14.984375 22.515625 14.984375 16.5 
Q 14.984375 11.71875 18.140625 8.90625 
Q 21.296875 6.109375 26.703125 6.109375 
Q 34.1875 6.109375 38.703125 11.40625 
Q 43.21875 16.703125 43.21875 25.484375 
L 43.21875 27.484375 
z
M 52.203125 31.203125 
L 52.203125 0 
L 43.21875 0 
L 43.21875 8.296875 
Q 40.140625 3.328125 35.546875 0.953125 
Q 30.953125 -1.421875 24.3125 -1.421875 
Q 15.921875 -1.421875 10.953125 3.296875 
Q 6 8.015625 6 15.921875 
Q 6 25.140625 12.171875 29.828125 
Q 18.359375 34.515625 30.609375 34.515625 
L 43.21875 34.515625 
L 43.21875 35.40625 
Q 43.21875 41.609375 39.140625 45 
Q 35.0625 48.390625 27.6875 48.390625 
Q 23 48.390625 18.546875 47.265625 
Q 14.109375 46.140625 10.015625 43.890625 
L 10.015625 52.203125 
Q 14.9375 54.109375 19.578125 55.046875 
Q 24.21875 56 28.609375 56 
Q 40.484375 56 46.34375 49.84375 
Q 52.203125 43.703125 52.203125 31.203125 
z
" id="DejaVuSans-97"/>
     <path d="M 9.421875 75.984375 
L 18.40625 75.984375 
L 18.40625 0 
L 9.421875 0 
z
" id="DejaVuSans-108"/>
     <path id="DejaVuSans-32"/>
    </defs>
    <g style="fill:#262626;" transform="translate(117.166847 25.683937)scale(0.18 -0.18)">
     <use xlink:href="#DejaVuSans-115"/>
     <use x="52.099609" xlink:href="#DejaVuSans-105"/>
     <use x="79.882812" xlink:href="#DejaVuSans-103"/>
     <use x="143.359375" xlink:href="#DejaVuSans-110"/>
     <use x="206.738281" xlink:href="#DejaVuSans-97"/>
     <use x="268.017578" xlink:href="#DejaVuSans-108"/>
     <use x="295.800781" xlink:href="#DejaVuSans-32"/>
     <use x="327.587891" xlink:href="#DejaVuSans-105"/>
     <use x="355.371094" xlink:href="#DejaVuSans-110"/>
    </g>
    <!-- neural activity -->
    <defs>
     <path d="M 56.203125 29.59375 
L 56.203125 25.203125 
L 14.890625 25.203125 
Q 15.484375 15.921875 20.484375 11.0625 
Q 25.484375 6.203125 34.421875 6.203125 
Q 39.59375 6.203125 44.453125 7.46875 
Q 49.3125 8.734375 54.109375 11.28125 
L 54.109375 2.78125 
Q 49.265625 0.734375 44.1875 -0.34375 
Q 39.109375 -1.421875 33.890625 -1.421875 
Q 20.796875 -1.421875 13.15625 6.1875 
Q 5.515625 13.8125 5.515625 26.8125 
Q 5.515625 40.234375 12.765625 48.109375 
Q 20.015625 56 32.328125 56 
Q 43.359375 56 49.78125 48.890625 
Q 56.203125 41.796875 56.203125 29.59375 
z
M 47.21875 32.234375 
Q 47.125 39.59375 43.09375 43.984375 
Q 39.0625 48.390625 32.421875 48.390625 
Q 24.90625 48.390625 20.390625 44.140625 
Q 15.875 39.890625 15.1875 32.171875 
z
" id="DejaVuSans-101"/>
     <path d="M 8.5 21.578125 
L 8.5 54.6875 
L 17.484375 54.6875 
L 17.484375 21.921875 
Q 17.484375 14.15625 20.5 10.265625 
Q 23.53125 6.390625 29.59375 6.390625 
Q 36.859375 6.390625 41.078125 11.03125 
Q 45.3125 15.671875 45.3125 23.6875 
L 45.3125 54.6875 
L 54.296875 54.6875 
L 54.296875 0 
L 45.3125 0 
L 45.3125 8.40625 
Q 42.046875 3.421875 37.71875 1 
Q 33.40625 -1.421875 27.6875 -1.421875 
Q 18.265625 -1.421875 13.375 4.4375 
Q 8.5 10.296875 8.5 21.578125 
z
M 31.109375 56 
z
" id="DejaVuSans-117"/>
     <path d="M 41.109375 46.296875 
Q 39.59375 47.171875 37.8125 47.578125 
Q 36.03125 48 33.890625 48 
Q 26.265625 48 22.1875 43.046875 
Q 18.109375 38.09375 18.109375 28.8125 
L 18.109375 0 
L 9.078125 0 
L 9.078125 54.6875 
L 18.109375 54.6875 
L 18.109375 46.1875 
Q 20.953125 51.171875 25.484375 53.578125 
Q 30.03125 56 36.53125 56 
Q 37.453125 56 38.578125 55.875 
Q 39.703125 55.765625 41.0625 55.515625 
z
" id="DejaVuSans-114"/>
     <path d="M 48.78125 52.59375 
L 48.78125 44.1875 
Q 44.96875 46.296875 41.140625 47.34375 
Q 37.3125 48.390625 33.40625 48.390625 
Q 24.65625 48.390625 19.8125 42.84375 
Q 14.984375 37.3125 14.984375 27.296875 
Q 14.984375 17.28125 19.8125 11.734375 
Q 24.65625 6.203125 33.40625 6.203125 
Q 37.3125 6.203125 41.140625 7.25 
Q 44.96875 8.296875 48.78125 10.40625 
L 48.78125 2.09375 
Q 45.015625 0.34375 40.984375 -0.53125 
Q 36.96875 -1.421875 32.421875 -1.421875 
Q 20.0625 -1.421875 12.78125 6.34375 
Q 5.515625 14.109375 5.515625 27.296875 
Q 5.515625 40.671875 12.859375 48.328125 
Q 20.21875 56 33.015625 56 
Q 37.15625 56 41.109375 55.140625 
Q 45.0625 54.296875 48.78125 52.59375 
z
" id="DejaVuSans-99"/>
     <path d="M 18.3125 70.21875 
L 18.3125 54.6875 
L 36.8125 54.6875 
L 36.8125 47.703125 
L 18.3125 47.703125 
L 18.3125 18.015625 
Q 18.3125 11.328125 20.140625 9.421875 
Q 21.96875 7.515625 27.59375 7.515625 
L 36.8125 7.515625 
L 36.8125 0 
L 27.59375 0 
Q 17.1875 0 13.234375 3.875 
Q 9.28125 7.765625 9.28125 18.015625 
L 9.28125 47.703125 
L 2.6875 47.703125 
L 2.6875 54.6875 
L 9.28125 54.6875 
L 9.28125 70.21875 
z
" id="DejaVuSans-116"/>
     <path d="M 2.984375 54.6875 
L 12.5 54.6875 
L 29.59375 8.796875 
L 46.6875 54.6875 
L 56.203125 54.6875 
L 35.6875 0 
L 23.484375 0 
z
" id="DejaVuSans-118"/>
     <path d="M 32.171875 -5.078125 
Q 28.375 -14.84375 24.75 -17.8125 
Q 21.140625 -20.796875 15.09375 -20.796875 
L 7.90625 -20.796875 
L 7.90625 -13.28125 
L 13.1875 -13.28125 
Q 16.890625 -13.28125 18.9375 -11.515625 
Q 21 -9.765625 23.484375 -3.21875 
L 25.09375 0.875 
L 2.984375 54.6875 
L 12.5 54.6875 
L 29.59375 11.921875 
L 46.6875 54.6875 
L 56.203125 54.6875 
z
" id="DejaVuSans-121"/>
    </defs>
    <g style="fill:#262626;" transform="translate(90.157004 45.84)scale(0.18 -0.18)">
     <use xlink:href="#DejaVuSans-110"/>
     <use x="63.378906" xlink:href="#DejaVuSans-101"/>
     <use x="124.902344" xlink:href="#DejaVuSans-117"/>
     <use x="188.28125" xlink:href="#DejaVuSans-114"/>
     <use x="229.394531" xlink:href="#DejaVuSans-97"/>
     <use x="290.673828" xlink:href="#DejaVuSans-108"/>
     <use x="318.457031" xlink:href="#DejaVuSans-32"/>
     <use x="350.244141" xlink:href="#DejaVuSans-97"/>
     <use x="411.523438" xlink:href="#DejaVuSans-99"/>
     <use x="466.503906" xlink:href="#DejaVuSans-116"/>
     <use x="505.712891" xlink:href="#DejaVuSans-105"/>
     <use x="533.496094" xlink:href="#DejaVuSans-118"/>
     <use x="592.675781" xlink:href="#DejaVuSans-105"/>
     <use x="620.458984" xlink:href="#DejaVuSans-116"/>
     <use x="659.667969" xlink:href="#DejaVuSans-121"/>
    </g>
   </g>
  </g>
  <g id="axes_2">
   <g id="patch_5">
    <path d="M 258.247059 203.04 
L 405.952941 203.04 
L 405.952941 51.84 
L 258.247059 51.84 
z
" style="fill:#ffffff;"/>
   </g>
   <g id="matplotlib.axis_3"/>
   <g id="matplotlib.axis_4">
    <g id="text_3">
     <!-- $\sigma$ -->
     <defs>
      <path d="M 34.671875 47.5625 
Q 27.25 47.5625 22.21875 42.1875 
Q 16.890625 36.578125 15.140625 27.296875 
Q 13.1875 17.484375 16.3125 11.8125 
Q 19.390625 6.203125 26.65625 6.203125 
Q 33.84375 6.203125 39.109375 11.859375 
Q 44.4375 17.53125 46.34375 27.296875 
Q 48.046875 36.234375 45.015625 42.1875 
Q 42.1875 47.5625 34.671875 47.5625 
z
M 36.078125 54.734375 
L 65.921875 54.6875 
L 64.15625 45.703125 
L 54.109375 45.703125 
Q 57.90625 38.09375 55.859375 27.296875 
Q 53.21875 13.875 45.0625 6.25 
Q 36.859375 -1.421875 25.140625 -1.421875 
Q 13.375 -1.421875 8.203125 6.25 
Q 3.03125 13.875 5.671875 27.296875 
Q 8.25 40.765625 16.40625 48.390625 
Q 23.1875 54.734375 36.078125 54.734375 
z
" id="DejaVuSans-Oblique-963"/>
     </defs>
     <g style="fill:#262626;" transform="translate(246.247059 122.240781)scale(0.25 -0.25)">
      <use transform="translate(0 0.265625)" xlink:href="#DejaVuSans-Oblique-963"/>
     </g>
    </g>
   </g>
   <g id="line2d_3">
    <path clip-path="url(#p36c3f05e58)" d="M 264.960963 126.010805 
L 266.317307 128.864855 
L 267.673651 125.202925 
L 269.029995 129.371266 
L 270.386339 127.930703 
L 271.742684 128.268671 
L 273.099028 126.580509 
L 274.455372 127.124542 
L 275.811716 126.922113 
L 277.16806 126.764983 
L 278.524404 126.225528 
L 279.880749 125.310139 
L 281.237093 128.129769 
L 282.593437 126.149009 
L 283.949781 126.199281 
L 285.306125 128.830051 
L 286.66247 129.161494 
L 288.018814 128.636283 
L 289.375158 129.29457 
L 290.731502 126.711916 
L 292.087846 128.56224 
L 293.444191 130.651079 
L 294.800535 127.343448 
L 296.156879 127.064412 
L 297.513223 126.194348 
L 298.869567 128.887119 
L 300.225912 128.575377 
L 301.582256 128.331008 
L 302.9386 128.088918 
L 304.294944 126.389712 
L 305.651288 128.33708 
L 307.007632 126.840985 
L 308.363977 126.598238 
L 309.720321 128.791312 
L 311.076665 127.236791 
L 312.433009 127.421346 
L 313.789353 126.760117 
L 315.145698 127.176744 
L 316.502042 130.942719 
L 317.858386 126.695531 
L 319.21473 128.555003 
L 320.571074 128.022582 
L 321.927419 128.990162 
L 323.283763 127.405944 
L 324.640107 128.840407 
L 325.996451 127.819859 
L 327.352795 126.294703 
L 328.70914 127.729502 
L 330.065484 128.23284 
L 331.421828 127.471406 
L 332.778172 165.307197 
L 334.134516 164.727594 
L 335.49086 165.908476 
L 336.847205 165.693706 
L 338.203549 165.178301 
L 339.559893 165.85766 
L 340.916237 165.256102 
L 342.272581 165.284553 
L 343.628926 163.896433 
L 344.98527 165.567522 
L 346.341614 165.530857 
L 347.697958 164.812976 
L 349.054302 164.914517 
L 350.410647 164.943456 
L 351.766991 165.148025 
L 353.123335 165.807841 
L 354.479679 165.224331 
L 355.836023 164.839953 
L 357.192368 164.526605 
L 358.548712 165.25276 
L 359.905056 166.357667 
L 361.2614 164.969736 
L 362.617744 164.928661 
L 363.974088 166.479624 
L 365.330433 165.408443 
L 366.686777 125.328175 
L 368.043121 126.56654 
L 369.399465 126.847553 
L 370.755809 127.829105 
L 372.112154 126.907516 
L 373.468498 125.144607 
L 374.824842 127.779492 
L 376.181186 127.449634 
L 377.53753 128.271654 
L 378.893875 127.797166 
L 380.250219 128.332503 
L 381.606563 131.129761 
L 382.962907 127.419262 
L 384.319251 125.869244 
L 385.675596 126.806483 
L 387.03194 129.070952 
L 388.388284 127.526647 
L 389.744628 127.335014 
L 391.100972 128.895201 
L 392.457316 128.301217 
L 393.813661 126.026532 
L 395.170005 127.604245 
L 396.526349 126.802716 
L 397.882693 124.958807 
L 399.239037 126.763437 
" style="fill:none;stroke:#000000;stroke-linecap:round;stroke-width:2.25;"/>
   </g>
   <g id="patch_6">
    <path d="M 258.247059 203.04 
L 258.247059 51.84 
" style="fill:none;stroke:#262626;stroke-linecap:square;stroke-linejoin:miter;stroke-width:1.875;"/>
   </g>
   <g id="patch_7">
    <path d="M 258.247059 203.04 
L 405.952941 203.04 
" style="fill:none;stroke:#262626;stroke-linecap:square;stroke-linejoin:miter;stroke-width:1.875;"/>
   </g>
   <g id="text_4">
    <!-- noise -->
    <defs>
     <path d="M 30.609375 48.390625 
Q 23.390625 48.390625 19.1875 42.75 
Q 14.984375 37.109375 14.984375 27.296875 
Q 14.984375 17.484375 19.15625 11.84375 
Q 23.34375 6.203125 30.609375 6.203125 
Q 37.796875 6.203125 41.984375 11.859375 
Q 46.1875 17.53125 46.1875 27.296875 
Q 46.1875 37.015625 41.984375 42.703125 
Q 37.796875 48.390625 30.609375 48.390625 
z
M 30.609375 56 
Q 42.328125 56 49.015625 48.375 
Q 55.71875 40.765625 55.71875 27.296875 
Q 55.71875 13.875 49.015625 6.21875 
Q 42.328125 -1.421875 30.609375 -1.421875 
Q 18.84375 -1.421875 12.171875 6.21875 
Q 5.515625 13.875 5.515625 27.296875 
Q 5.515625 40.765625 12.171875 48.375 
Q 18.84375 56 30.609375 56 
z
" id="DejaVuSans-111"/>
    </defs>
    <g style="fill:#262626;" transform="translate(308.162813 45.84)scale(0.18 -0.18)">
     <use xlink:href="#DejaVuSans-110"/>
     <use x="63.378906" xlink:href="#DejaVuSans-111"/>
     <use x="124.560547" xlink:href="#DejaVuSans-105"/>
     <use x="152.34375" xlink:href="#DejaVuSans-115"/>
     <use x="204.443359" xlink:href="#DejaVuSans-101"/>
    </g>
   </g>
  </g>
  <g id="axes_3">
   <g id="patch_8">
    <path d="M 435.494118 203.04 
L 583.2 203.04 
L 583.2 51.84 
L 435.494118 51.84 
z
" style="fill:#ffffff;"/>
   </g>
   <g id="matplotlib.axis_5"/>
   <g id="matplotlib.axis_6">
    <g id="text_5">
     <!-- $\frac{\mu}{\sigma}$ -->
     <g style="fill:#262626;" transform="translate(424.244118 120.69)scale(0.25 -0.25)">
      <use transform="translate(0 58.71875)scale(0.7)" xlink:href="#DejaVuSans-Oblique-956"/>
      <use transform="translate(0 -25.403125)scale(0.7)" xlink:href="#DejaVuSans-Oblique-963"/>
      <path d="M 0 19.160938 
L 0 25.410938 
L 44.536133 25.410938 
L 44.536133 19.160938 
L 0 19.160938 
z
"/>
     </g>
    </g>
   </g>
   <g id="line2d_4">
    <path clip-path="url(#pc35bb6478f)" d="M 442.208021 61.734435 
L 443.564366 58.712727 
L 444.92071 64.749618 
L 446.277054 59.280862 
L 447.633398 63.442183 
L 448.989742 64.930434 
L 450.346087 68.74352 
L 451.702431 69.095821 
L 453.058775 71.164559 
L 454.415119 72.333445 
L 455.771463 75.586704 
L 457.127807 77.832602 
L 458.484152 74.37111 
L 459.840496 78.605929 
L 461.19684 80.340567 
L 462.553184 77.397989 
L 463.909528 79.055844 
L 465.265873 81.378377 
L 466.622217 81.377576 
L 467.978561 86.039462 
L 469.334905 85.518911 
L 470.691249 83.109262 
L 472.047594 90.47863 
L 473.403938 91.294767 
L 474.760282 94.478068 
L 476.116626 91.726509 
L 477.47297 93.243233 
L 478.829315 94.799694 
L 480.185659 97.387221 
L 481.542003 99.972312 
L 482.898347 99.536009 
L 484.254691 102.657605 
L 485.611035 104.10207 
L 486.96738 103.718497 
L 488.323724 106.044001 
L 489.680068 107.894814 
L 491.036412 110.577157 
L 492.392756 110.129851 
L 493.749101 107.390221 
L 495.105445 114.559674 
L 496.461789 113.948223 
L 497.818133 116.034086 
L 499.174477 115.148412 
L 500.530822 118.473899 
L 501.887166 118.250404 
L 503.24351 120.857611 
L 504.599854 122.943724 
L 505.956198 123.422861 
L 507.312543 124.822543 
L 508.668887 127.559902 
L 510.025231 60.204364 
L 511.381575 65.107887 
L 512.737919 63.719166 
L 514.094263 67.772214 
L 515.450608 71.114656 
L 516.806952 72.623823 
L 518.163296 77.178774 
L 519.51964 79.256634 
L 520.875984 86.734928 
L 522.232329 85.180122 
L 523.588673 87.08867 
L 524.945017 92.42767 
L 526.301361 94.916052 
L 527.657705 96.60643 
L 529.01405 99.7021 
L 530.370394 101.043759 
L 531.726738 104.990613 
L 533.083082 108.776071 
L 534.439426 111.901902 
L 535.795771 113.322103 
L 537.152115 112.979137 
L 538.508459 118.916738 
L 539.864803 122.20267 
L 541.221147 122.151139 
L 542.577491 126.104757 
L 543.933836 164.123194 
L 545.29018 164.175587 
L 546.646524 165.724593 
L 548.002868 166.487923 
L 549.359212 169.598277 
L 550.715557 170.93647 
L 552.071901 170.970146 
L 553.428245 172.095407 
L 554.784589 174.473364 
L 556.140933 174.69734 
L 557.497278 176.864719 
L 558.853622 177.183568 
L 560.209966 179.76546 
L 561.56631 181.332486 
L 562.922654 183.518626 
L 564.278999 184.109239 
L 565.635343 183.919248 
L 566.991687 186.455721 
L 568.348031 186.627837 
L 569.704375 189.531084 
L 571.060719 190.922602 
L 572.417064 192.378943 
L 573.773408 192.737501 
L 575.129752 194.507463 
L 576.486096 196.167273 
" style="fill:none;stroke:#000000;stroke-linecap:round;stroke-width:2.25;"/>
   </g>
   <g id="patch_9">
    <path d="M 435.494118 203.04 
L 435.494118 51.84 
" style="fill:none;stroke:#262626;stroke-linecap:square;stroke-linejoin:miter;stroke-width:1.875;"/>
   </g>
   <g id="patch_10">
    <path d="M 435.494118 203.04 
L 583.2 203.04 
" style="fill:none;stroke:#262626;stroke-linecap:square;stroke-linejoin:miter;stroke-width:1.875;"/>
   </g>
   <g id="text_6">
    <!-- signal-to-noise -->
    <defs>
     <path d="M 4.890625 31.390625 
L 31.203125 31.390625 
L 31.203125 23.390625 
L 4.890625 23.390625 
z
" id="DejaVuSans-45"/>
    </defs>
    <g style="fill:#262626;" transform="translate(443.257528 45.84)scale(0.18 -0.18)">
     <use xlink:href="#DejaVuSans-115"/>
     <use x="52.099609" xlink:href="#DejaVuSans-105"/>
     <use x="79.882812" xlink:href="#DejaVuSans-103"/>
     <use x="143.359375" xlink:href="#DejaVuSans-110"/>
     <use x="206.738281" xlink:href="#DejaVuSans-97"/>
     <use x="268.017578" xlink:href="#DejaVuSans-108"/>
     <use x="295.800781" xlink:href="#DejaVuSans-45"/>
     <use x="331.884766" xlink:href="#DejaVuSans-116"/>
     <use x="371.09375" xlink:href="#DejaVuSans-111"/>
     <use x="432.291016" xlink:href="#DejaVuSans-45"/>
     <use x="468.375" xlink:href="#DejaVuSans-110"/>
     <use x="531.753906" xlink:href="#DejaVuSans-111"/>
     <use x="592.935547" xlink:href="#DejaVuSans-105"/>
     <use x="620.71875" xlink:href="#DejaVuSans-115"/>
     <use x="672.818359" xlink:href="#DejaVuSans-101"/>
    </g>
   </g>
  </g>
  <g id="axes_4">
   <g id="patch_11">
    <path d="M 81 384.48 
L 228.705882 384.48 
L 228.705882 233.28 
L 81 233.28 
z
" style="fill:#ffffff;"/>
   </g>
   <g id="matplotlib.axis_7"/>
   <g id="matplotlib.axis_8">
    <g id="text_7">
     <!-- $\mu$ -->
     <g style="fill:#262626;" transform="translate(69 303.63)scale(0.25 -0.25)">
      <use transform="translate(0 0.3125)" xlink:href="#DejaVuSans-Oblique-956"/>
     </g>
    </g>
   </g>
   <g id="line2d_5">
    <path clip-path="url(#p571fc65afd)" d="M 87.713904 241.925396 
L 89.070248 246.786299 
L 90.426592 243.815084 
L 91.782936 254.959221 
L 93.139281 240.152727 
L 94.495625 256.512858 
L 95.851969 253.591688 
L 97.208313 259.67948 
L 98.564657 251.897829 
L 99.921001 252.984583 
L 101.277346 250.387307 
L 102.63369 255.124553 
L 103.990034 255.272015 
L 105.346378 264.194176 
L 106.702722 269.610838 
L 108.059067 263.868227 
L 109.415411 258.585875 
L 110.771755 267.73976 
L 112.128099 272.318204 
L 113.484443 267.663064 
L 114.840788 261.542093 
L 116.197132 270.215509 
L 117.553476 272.150781 
L 118.90982 279.739357 
L 120.266164 272.963783 
L 121.622509 271.114057 
L 122.978853 278.114544 
L 124.335197 278.58564 
L 125.691541 286.264212 
L 127.047885 276.088141 
L 128.404229 289.686182 
L 129.760574 288.142672 
L 131.116918 288.735939 
L 132.473262 284.926061 
L 133.829606 279.846542 
L 135.18595 303.810717 
L 136.542295 293.846632 
L 137.898639 287.265675 
L 139.254983 290.609927 
L 140.611327 297.545835 
L 141.967671 301.365236 
L 143.324016 292.596713 
L 144.68036 300.402309 
L 146.036704 304.895564 
L 147.393048 304.274966 
L 148.749392 307.403757 
L 150.105737 296.771012 
L 151.462081 304.512858 
L 152.818425 307.801474 
L 154.174769 301.103397 
L 155.531113 277.760139 
L 156.887457 283.17749 
L 158.243802 282.919357 
L 159.600146 275.818552 
L 160.95649 293.819078 
L 162.312834 283.328186 
L 163.669178 287.314794 
L 165.025523 287.957441 
L 166.381867 288.345973 
L 167.738211 283.37286 
L 169.094555 291.591632 
L 170.450899 297.427714 
L 171.807244 289.299995 
L 173.163588 291.604177 
L 174.519932 308.983029 
L 175.876276 305.151698 
L 177.23262 297.611575 
L 178.588965 309.291662 
L 179.945309 298.367091 
L 181.301653 310.586044 
L 182.657997 315.533332 
L 184.014341 322.773011 
L 185.370685 314.659591 
L 186.72703 315.739732 
L 188.083374 321.207669 
L 189.439718 337.165789 
L 190.796062 343.990516 
L 192.152406 339.944382 
L 193.508751 339.699084 
L 194.865095 338.159697 
L 196.221439 344.59769 
L 197.577783 350.522488 
L 198.934127 351.07639 
L 200.290472 350.834612 
L 201.646816 352.550051 
L 203.00316 355.037706 
L 204.359504 355.976168 
L 205.715848 353.001022 
L 207.072193 358.453139 
L 208.428537 350.168766 
L 209.784881 365.8972 
L 211.141225 353.109554 
L 212.497569 359.74525 
L 213.853913 368.313179 
L 215.210258 377.607273 
L 216.566602 371.88821 
L 217.922946 364.68007 
L 219.27929 370.814818 
L 220.635634 373.474022 
L 221.991979 377.161265 
" style="fill:none;stroke:#000000;stroke-linecap:round;stroke-width:2.25;"/>
   </g>
   <g id="line2d_6">
    <path clip-path="url(#p571fc65afd)" d="M 87.713904 304.841613 
L 89.070248 305.135942 
L 90.426592 308.362562 
L 91.782936 300.863317 
L 93.139281 302.139385 
L 94.495625 306.119901 
L 95.851969 301.614803 
L 97.208313 315.753553 
L 98.564657 312.846389 
L 99.921001 326.334966 
L 101.277346 317.701841 
L 102.63369 310.186752 
L 103.990034 308.409643 
L 105.346378 311.685458 
L 106.702722 315.889044 
L 108.059067 318.25834 
L 109.415411 328.393645 
L 110.771755 316.742034 
L 112.128099 319.993702 
L 113.484443 315.022069 
L 114.840788 321.039146 
L 116.197132 318.172903 
L 117.553476 317.270428 
L 118.90982 332.594253 
L 120.266164 330.188682 
L 121.622509 321.824599 
L 122.978853 319.401505 
L 124.335197 321.68529 
L 125.691541 321.958871 
L 127.047885 327.777797 
L 128.404229 315.565561 
L 129.760574 327.718153 
L 131.116918 328.080931 
L 132.473262 328.926773 
L 133.829606 322.300631 
L 135.18595 335.854929 
L 136.542295 331.683419 
L 137.898639 338.557749 
L 139.254983 335.094358 
L 140.611327 334.120701 
L 141.967671 337.750501 
L 143.324016 333.313561 
L 144.68036 336.757983 
L 146.036704 330.804849 
L 147.393048 338.18901 
L 148.749392 333.608398 
L 150.105737 326.878596 
L 151.462081 339.237932 
L 152.818425 340.633629 
L 154.174769 340.98432 
L 155.531113 336.807665 
L 156.887457 347.371009 
L 158.243802 340.18933 
L 159.600146 345.997142 
L 160.95649 345.539994 
L 162.312834 330.676595 
L 163.669178 340.483024 
L 165.025523 348.231113 
L 166.381867 338.875574 
L 167.738211 345.465829 
L 169.094555 342.320397 
L 170.450899 350.570474 
L 171.807244 349.049746 
L 173.163588 346.848763 
L 174.519932 351.941494 
L 175.876276 351.908252 
L 177.23262 354.948268 
L 178.588965 349.430689 
L 179.945309 345.678293 
L 181.301653 349.503314 
L 182.657997 346.719083 
L 184.014341 357.997839 
L 185.370685 354.836609 
L 186.72703 347.911994 
L 188.083374 356.0864 
L 189.439718 363.852444 
L 190.796062 364.278827 
L 192.152406 363.662217 
L 193.508751 349.056343 
L 194.865095 361.116161 
L 196.221439 359.095543 
L 197.577783 364.687769 
L 198.934127 353.804209 
L 200.290472 360.988657 
L 201.646816 363.218599 
L 203.00316 364.709062 
L 204.359504 361.914743 
L 205.715848 365.617723 
L 207.072193 371.962853 
L 208.428537 363.792027 
L 209.784881 368.024435 
L 211.141225 370.509169 
L 212.497569 364.74429 
L 213.853913 365.940249 
L 215.210258 366.977244 
L 216.566602 368.793171 
L 217.922946 374.150139 
L 219.27929 367.96735 
L 220.635634 354.8737 
L 221.991979 370.911004 
" style="fill:none;stroke:#808080;stroke-linecap:round;stroke-width:2.25;"/>
   </g>
   <g id="patch_12">
    <path d="M 81 384.48 
L 81 233.28 
" style="fill:none;stroke:#262626;stroke-linecap:square;stroke-linejoin:miter;stroke-width:1.875;"/>
   </g>
   <g id="patch_13">
    <path d="M 81 384.48 
L 228.705882 384.48 
" style="fill:none;stroke:#262626;stroke-linecap:square;stroke-linejoin:miter;stroke-width:1.875;"/>
   </g>
  </g>
  <g id="axes_5">
   <g id="patch_14">
    <path d="M 258.247059 384.48 
L 405.952941 384.48 
L 405.952941 233.28 
L 258.247059 233.28 
z
" style="fill:#ffffff;"/>
   </g>
   <g id="matplotlib.axis_9">
    <g id="text_8">
     <!-- time -->
     <defs>
      <path d="M 52 44.1875 
Q 55.375 50.25 60.0625 53.125 
Q 64.75 56 71.09375 56 
Q 79.640625 56 84.28125 50.015625 
Q 88.921875 44.046875 88.921875 33.015625 
L 88.921875 0 
L 79.890625 0 
L 79.890625 32.71875 
Q 79.890625 40.578125 77.09375 44.375 
Q 74.3125 48.1875 68.609375 48.1875 
Q 61.625 48.1875 57.5625 43.546875 
Q 53.515625 38.921875 53.515625 30.90625 
L 53.515625 0 
L 44.484375 0 
L 44.484375 32.71875 
Q 44.484375 40.625 41.703125 44.40625 
Q 38.921875 48.1875 33.109375 48.1875 
Q 26.21875 48.1875 22.15625 43.53125 
Q 18.109375 38.875 18.109375 30.90625 
L 18.109375 0 
L 9.078125 0 
L 9.078125 54.6875 
L 18.109375 54.6875 
L 18.109375 46.1875 
Q 21.1875 51.21875 25.484375 53.609375 
Q 29.78125 56 35.6875 56 
Q 41.65625 56 45.828125 52.96875 
Q 50 49.953125 52 44.1875 
z
" id="DejaVuSans-109"/>
     </defs>
     <g style="fill:#262626;" transform="translate(311.767031 402.157188)scale(0.18 -0.18)">
      <use xlink:href="#DejaVuSans-116"/>
      <use x="39.208984" xlink:href="#DejaVuSans-105"/>
      <use x="66.992188" xlink:href="#DejaVuSans-109"/>
      <use x="164.404297" xlink:href="#DejaVuSans-101"/>
     </g>
    </g>
   </g>
   <g id="matplotlib.axis_10">
    <g id="text_9">
     <!-- $\sigma$ -->
     <g style="fill:#262626;" transform="translate(246.247059 303.680781)scale(0.25 -0.25)">
      <use transform="translate(0 0.265625)" xlink:href="#DejaVuSans-Oblique-963"/>
     </g>
    </g>
   </g>
   <g id="line2d_7">
    <path clip-path="url(#pb4d6c02f8a)" d="M 264.960963 307.450805 
L 266.317307 310.304855 
L 267.673651 306.642925 
L 269.029995 310.811266 
L 270.386339 309.370703 
L 271.742684 309.708671 
L 273.099028 308.020509 
L 274.455372 308.564542 
L 275.811716 308.362113 
L 277.16806 308.204983 
L 278.524404 307.665528 
L 279.880749 306.750139 
L 281.237093 309.569769 
L 282.593437 307.589009 
L 283.949781 307.639281 
L 285.306125 310.270051 
L 286.66247 310.601494 
L 288.018814 310.076283 
L 289.375158 310.73457 
L 290.731502 308.151916 
L 292.087846 310.00224 
L 293.444191 312.091079 
L 294.800535 308.783448 
L 296.156879 308.504412 
L 297.513223 307.634348 
L 298.869567 310.327119 
L 300.225912 310.015377 
L 301.582256 309.771008 
L 302.9386 309.528918 
L 304.294944 307.829712 
L 305.651288 309.77708 
L 307.007632 308.280985 
L 308.363977 308.038238 
L 309.720321 310.231312 
L 311.076665 308.676791 
L 312.433009 308.861346 
L 313.789353 308.200117 
L 315.145698 308.616744 
L 316.502042 312.382719 
L 317.858386 308.135531 
L 319.21473 309.995003 
L 320.571074 309.462582 
L 321.927419 310.430162 
L 323.283763 308.845944 
L 324.640107 310.280407 
L 325.996451 309.259859 
L 327.352795 307.734703 
L 328.70914 309.169502 
L 330.065484 309.67284 
L 331.421828 308.911406 
L 332.778172 308.897843 
L 334.134516 308.823695 
L 335.49086 308.27461 
L 336.847205 309.04315 
L 338.203549 309.818965 
L 339.559893 307.656442 
L 340.916237 311.030945 
L 342.272581 309.706494 
L 343.628926 307.446026 
L 344.98527 308.738437 
L 346.341614 310.420221 
L 347.697958 308.602857 
L 349.054302 308.401923 
L 350.410647 308.488027 
L 351.766991 310.371783 
L 353.123335 309.368871 
L 354.479679 310.084355 
L 355.836023 309.003997 
L 357.192368 308.905725 
L 358.548712 308.291455 
L 359.905056 307.86899 
L 361.2614 308.303548 
L 362.617744 309.626567 
L 363.974088 308.427896 
L 365.330433 309.060033 
L 366.686777 306.768175 
L 368.043121 308.00654 
L 369.399465 308.287553 
L 370.755809 309.269105 
L 372.112154 308.347516 
L 373.468498 306.584607 
L 374.824842 309.219492 
L 376.181186 308.889634 
L 377.53753 309.711654 
L 378.893875 309.237166 
L 380.250219 309.772503 
L 381.606563 312.569761 
L 382.962907 308.859262 
L 384.319251 307.309244 
L 385.675596 308.246483 
L 387.03194 310.510952 
L 388.388284 308.966647 
L 389.744628 308.775014 
L 391.100972 310.335201 
L 392.457316 309.741217 
L 393.813661 307.466532 
L 395.170005 309.044245 
L 396.526349 308.242716 
L 397.882693 306.398807 
L 399.239037 308.203437 
" style="fill:none;stroke:#000000;stroke-linecap:round;stroke-width:2.25;"/>
   </g>
   <g id="patch_15">
    <path d="M 258.247059 384.48 
L 258.247059 233.28 
" style="fill:none;stroke:#262626;stroke-linecap:square;stroke-linejoin:miter;stroke-width:1.875;"/>
   </g>
   <g id="patch_16">
    <path d="M 258.247059 384.48 
L 405.952941 384.48 
" style="fill:none;stroke:#262626;stroke-linecap:square;stroke-linejoin:miter;stroke-width:1.875;"/>
   </g>
  </g>
  <g id="axes_6">
   <g id="patch_17">
    <path d="M 435.494118 384.48 
L 583.2 384.48 
L 583.2 233.28 
L 435.494118 233.28 
z
" style="fill:#ffffff;"/>
   </g>
   <g id="matplotlib.axis_11"/>
   <g id="matplotlib.axis_12">
    <g id="text_10">
     <!-- $\frac{\mu}{\sigma}$ -->
     <g style="fill:#262626;" transform="translate(424.244118 302.13)scale(0.25 -0.25)">
      <use transform="translate(0 58.71875)scale(0.7)" xlink:href="#DejaVuSans-Oblique-956"/>
      <use transform="translate(0 -25.403125)scale(0.7)" xlink:href="#DejaVuSans-Oblique-963"/>
      <path d="M 0 19.160938 
L 0 25.410938 
L 44.536133 25.410938 
L 44.536133 19.160938 
L 0 19.160938 
z
"/>
     </g>
    </g>
   </g>
   <g id="line2d_8">
    <path clip-path="url(#p2cc65584ce)" d="M 442.208021 243.174435 
L 443.564366 240.152727 
L 444.92071 246.189618 
L 446.277054 240.720862 
L 447.633398 244.882183 
L 448.989742 246.370434 
L 450.346087 250.18352 
L 451.702431 250.535821 
L 453.058775 252.604559 
L 454.415119 253.773445 
L 455.771463 257.026704 
L 457.127807 259.272602 
L 458.484152 255.81111 
L 459.840496 260.045929 
L 461.19684 261.780567 
L 462.553184 258.837989 
L 463.909528 260.495844 
L 465.265873 262.818377 
L 466.622217 262.817576 
L 467.978561 267.479462 
L 469.334905 266.958911 
L 470.691249 264.549262 
L 472.047594 271.91863 
L 473.403938 272.734767 
L 474.760282 275.918068 
L 476.116626 273.166509 
L 477.47297 274.683233 
L 478.829315 276.239694 
L 480.185659 278.827221 
L 481.542003 281.412312 
L 482.898347 280.976009 
L 484.254691 284.097605 
L 485.611035 285.54207 
L 486.96738 285.158497 
L 488.323724 287.484001 
L 489.680068 289.334814 
L 491.036412 292.017157 
L 492.392756 291.569851 
L 493.749101 288.830221 
L 495.105445 295.999674 
L 496.461789 295.388223 
L 497.818133 297.474086 
L 499.174477 296.588412 
L 500.530822 299.913899 
L 501.887166 299.690404 
L 503.24351 302.297611 
L 504.599854 304.383724 
L 505.956198 304.862861 
L 507.312543 306.262543 
L 508.668887 308.999902 
L 510.025231 240.744933 
L 511.381575 242.784503 
L 512.737919 246.290504 
L 514.094263 247.435888 
L 515.450608 247.968689 
L 516.806952 254.65073 
L 518.163296 249.39378 
L 519.51964 254.20286 
L 520.875984 260.165405 
L 522.232329 260.35653 
L 523.588673 258.775375 
L 524.945017 264.110262 
L 526.301361 266.557606 
L 527.657705 269.527888 
L 529.01405 267.948627 
L 530.370394 272.259976 
L 531.726738 273.42226 
L 533.083082 276.11879 
L 534.439426 278.823792 
L 535.795771 281.527301 
L 537.152115 284.69232 
L 538.508459 285.555359 
L 539.864803 286.028702 
L 541.221147 289.282589 
L 542.577491 290.950576 
L 543.933836 345.563194 
L 545.29018 345.615587 
L 546.646524 347.164593 
L 548.002868 347.927923 
L 549.359212 351.038277 
L 550.715557 352.37647 
L 552.071901 352.410146 
L 553.428245 353.535407 
L 554.784589 355.913364 
L 556.140933 356.13734 
L 557.497278 358.304719 
L 558.853622 358.623568 
L 560.209966 361.20546 
L 561.56631 362.772486 
L 562.922654 364.958626 
L 564.278999 365.549239 
L 565.635343 365.359248 
L 566.991687 367.895721 
L 568.348031 368.067837 
L 569.704375 370.971084 
L 571.060719 372.362602 
L 572.417064 373.818943 
L 573.773408 374.177501 
L 575.129752 375.947463 
L 576.486096 377.607273 
" style="fill:none;stroke:#000000;stroke-linecap:round;stroke-width:2.25;"/>
   </g>
   <g id="patch_18">
    <path d="M 435.494118 384.48 
L 435.494118 233.28 
" style="fill:none;stroke:#262626;stroke-linecap:square;stroke-linejoin:miter;stroke-width:1.875;"/>
   </g>
   <g id="patch_19">
    <path d="M 435.494118 384.48 
L 583.2 384.48 
" style="fill:none;stroke:#262626;stroke-linecap:square;stroke-linejoin:miter;stroke-width:1.875;"/>
   </g>
  </g>
 </g>
 <defs>
  <clipPath id="p8f4a9b1025">
   <rect height="151.2" width="147.705882" x="81" y="51.84"/>
  </clipPath>
  <clipPath id="p36c3f05e58">
   <rect height="151.2" width="147.705882" x="258.247059" y="51.84"/>
  </clipPath>
  <clipPath id="pc35bb6478f">
   <rect height="151.2" width="147.705882" x="435.494118" y="51.84"/>
  </clipPath>
  <clipPath id="p571fc65afd">
   <rect height="151.2" width="147.705882" x="81" y="233.28"/>
  </clipPath>
  <clipPath id="pb4d6c02f8a">
   <rect height="151.2" width="147.705882" x="258.247059" y="233.28"/>
  </clipPath>
  <clipPath id="p2cc65584ce">
   <rect height="151.2" width="147.705882" x="435.494118" y="233.28"/>
  </clipPath>
 </defs>
</svg>
