<?xml version="1.0" encoding="utf-8" standalone="no"?>
<!DOCTYPE svg PUBLIC "-//W3C//DTD SVG 1.1//EN"
  "http://www.w3.org/Graphics/SVG/1.1/DTD/svg11.dtd">
<!-- Created with matplotlib (https://matplotlib.org/) -->
<svg height="144pt" version="1.1" viewBox="0 0 144 144" width="144pt" xmlns="http://www.w3.org/2000/svg" xmlns:xlink="http://www.w3.org/1999/xlink">
 <metadata>
  <rdf:RDF xmlns:cc="http://creativecommons.org/ns#" xmlns:dc="http://purl.org/dc/elements/1.1/" xmlns:rdf="http://www.w3.org/1999/02/22-rdf-syntax-ns#">
   <cc:Work>
    <dc:type rdf:resource="http://purl.org/dc/dcmitype/StillImage"/>
    <dc:date>2021-09-13T17:16:37.108643</dc:date>
    <dc:format>image/svg+xml</dc:format>
    <dc:creator>
     <cc:Agent>
      <dc:title>Matplotlib v3.3.2, https://matplotlib.org/</dc:title>
     </cc:Agent>
    </dc:creator>
   </cc:Work>
  </rdf:RDF>
 </metadata>
 <defs>
  <style type="text/css">*{stroke-linecap:butt;stroke-linejoin:round;}</style>
 </defs>
 <g id="figure_1">
  <g id="patch_1">
   <path d="M 0 144 
L 144 144 
L 144 0 
L 0 0 
z
" style="fill:#ffffff;"/>
  </g>
  <g id="axes_1">
   <g id="patch_2">
    <path d="M 18 128.16 
L 129.6 128.16 
L 129.6 17.28 
L 18 17.28 
z
" style="fill:#ffffff;"/>
   </g>
   <g id="matplotlib.axis_1">
    <g id="xtick_1">
     <g id="line2d_1">
      <defs>
       <path d="M 0 0 
L 0 -9 
" id="m45930b3741" style="stroke:#262626;stroke-width:1.875;"/>
      </defs>
      <g>
       <use style="fill:#262626;stroke:#262626;stroke-width:1.875;" x="36.6" xlink:href="#m45930b3741" y="128.16"/>
      </g>
     </g>
     <g id="text_1">
      <!-- 0.0 -->
      <g style="fill:#262626;" transform="translate(27.426 141.108313)scale(0.132 -0.132)">
       <defs>
        <path d="M 4.15625 35.296875 
Q 4.15625 48 6.765625 55.734375 
Q 9.375 63.484375 14.515625 67.671875 
Q 19.671875 71.875 27.484375 71.875 
Q 33.25 71.875 37.59375 69.546875 
Q 41.9375 67.234375 44.765625 62.859375 
Q 47.609375 58.5 49.21875 52.21875 
Q 50.828125 45.953125 50.828125 35.296875 
Q 50.828125 22.703125 48.234375 14.96875 
Q 45.65625 7.234375 40.5 3 
Q 35.359375 -1.21875 27.484375 -1.21875 
Q 17.140625 -1.21875 11.234375 6.203125 
Q 4.15625 15.140625 4.15625 35.296875 
z
M 13.1875 35.296875 
Q 13.1875 17.671875 17.3125 11.828125 
Q 21.4375 6 27.484375 6 
Q 33.546875 6 37.671875 11.859375 
Q 41.796875 17.71875 41.796875 35.296875 
Q 41.796875 52.984375 37.671875 58.78125 
Q 33.546875 64.59375 27.390625 64.59375 
Q 21.34375 64.59375 17.71875 59.46875 
Q 13.1875 52.9375 13.1875 35.296875 
z
" id="ArialMT-48"/>
        <path d="M 9.078125 0 
L 9.078125 10.015625 
L 19.09375 10.015625 
L 19.09375 0 
z
" id="ArialMT-46"/>
       </defs>
       <use xlink:href="#ArialMT-48"/>
       <use x="55.615234" xlink:href="#ArialMT-46"/>
       <use x="83.398438" xlink:href="#ArialMT-48"/>
      </g>
     </g>
    </g>
    <g id="xtick_2">
     <g id="line2d_2">
      <g>
       <use style="fill:#262626;stroke:#262626;stroke-width:1.875;" x="129.6" xlink:href="#m45930b3741" y="128.16"/>
      </g>
     </g>
     <g id="text_2">
      <!-- 0.5 -->
      <g style="fill:#262626;" transform="translate(120.426 141.108313)scale(0.132 -0.132)">
       <defs>
        <path d="M 4.15625 18.75 
L 13.375 19.53125 
Q 14.40625 12.796875 18.140625 9.390625 
Q 21.875 6 27.15625 6 
Q 33.5 6 37.890625 10.78125 
Q 42.28125 15.578125 42.28125 23.484375 
Q 42.28125 31 38.0625 35.34375 
Q 33.84375 39.703125 27 39.703125 
Q 22.75 39.703125 19.328125 37.765625 
Q 15.921875 35.84375 13.96875 32.765625 
L 5.71875 33.84375 
L 12.640625 70.609375 
L 48.25 70.609375 
L 48.25 62.203125 
L 19.671875 62.203125 
L 15.828125 42.96875 
Q 22.265625 47.46875 29.34375 47.46875 
Q 38.71875 47.46875 45.15625 40.96875 
Q 51.609375 34.46875 51.609375 24.265625 
Q 51.609375 14.546875 45.953125 7.46875 
Q 39.0625 -1.21875 27.15625 -1.21875 
Q 17.390625 -1.21875 11.203125 4.25 
Q 5.03125 9.71875 4.15625 18.75 
z
" id="ArialMT-53"/>
       </defs>
       <use xlink:href="#ArialMT-48"/>
       <use x="55.615234" xlink:href="#ArialMT-46"/>
       <use x="83.398438" xlink:href="#ArialMT-53"/>
      </g>
     </g>
    </g>
    <g id="text_3">
     <!-- time from pinging -->
     <g style="fill:#262626;" transform="translate(18.5805 158.214562)scale(0.144 -0.144)">
      <defs>
       <path d="M 25.78125 7.859375 
L 27.046875 0.09375 
Q 23.34375 -0.6875 20.40625 -0.6875 
Q 15.625 -0.6875 12.984375 0.828125 
Q 10.359375 2.34375 9.28125 4.8125 
Q 8.203125 7.28125 8.203125 15.1875 
L 8.203125 45.015625 
L 1.765625 45.015625 
L 1.765625 51.859375 
L 8.203125 51.859375 
L 8.203125 64.703125 
L 16.9375 69.96875 
L 16.9375 51.859375 
L 25.78125 51.859375 
L 25.78125 45.015625 
L 16.9375 45.015625 
L 16.9375 14.703125 
Q 16.9375 10.9375 17.40625 9.859375 
Q 17.875 8.796875 18.921875 8.15625 
Q 19.96875 7.515625 21.921875 7.515625 
Q 23.390625 7.515625 25.78125 7.859375 
z
" id="ArialMT-116"/>
       <path d="M 6.640625 61.46875 
L 6.640625 71.578125 
L 15.4375 71.578125 
L 15.4375 61.46875 
z
M 6.640625 0 
L 6.640625 51.859375 
L 15.4375 51.859375 
L 15.4375 0 
z
" id="ArialMT-105"/>
       <path d="M 6.59375 0 
L 6.59375 51.859375 
L 14.453125 51.859375 
L 14.453125 44.578125 
Q 16.890625 48.390625 20.9375 50.703125 
Q 25 53.03125 30.171875 53.03125 
Q 35.9375 53.03125 39.625 50.640625 
Q 43.3125 48.25 44.828125 43.953125 
Q 50.984375 53.03125 60.84375 53.03125 
Q 68.5625 53.03125 72.703125 48.75 
Q 76.859375 44.484375 76.859375 35.59375 
L 76.859375 0 
L 68.109375 0 
L 68.109375 32.671875 
Q 68.109375 37.9375 67.25 40.25 
Q 66.40625 42.578125 64.15625 43.984375 
Q 61.921875 45.40625 58.890625 45.40625 
Q 53.421875 45.40625 49.796875 41.765625 
Q 46.1875 38.140625 46.1875 30.125 
L 46.1875 0 
L 37.40625 0 
L 37.40625 33.6875 
Q 37.40625 39.546875 35.25 42.46875 
Q 33.109375 45.40625 28.21875 45.40625 
Q 24.515625 45.40625 21.359375 43.453125 
Q 18.21875 41.5 16.796875 37.734375 
Q 15.375 33.984375 15.375 26.90625 
L 15.375 0 
z
" id="ArialMT-109"/>
       <path d="M 42.09375 16.703125 
L 51.171875 15.578125 
Q 49.03125 7.625 43.21875 3.21875 
Q 37.40625 -1.171875 28.375 -1.171875 
Q 17 -1.171875 10.328125 5.828125 
Q 3.65625 12.84375 3.65625 25.484375 
Q 3.65625 38.578125 10.390625 45.796875 
Q 17.140625 53.03125 27.875 53.03125 
Q 38.28125 53.03125 44.875 45.953125 
Q 51.46875 38.875 51.46875 26.03125 
Q 51.46875 25.25 51.421875 23.6875 
L 12.75 23.6875 
Q 13.234375 15.140625 17.578125 10.59375 
Q 21.921875 6.0625 28.421875 6.0625 
Q 33.25 6.0625 36.671875 8.59375 
Q 40.09375 11.140625 42.09375 16.703125 
z
M 13.234375 30.90625 
L 42.1875 30.90625 
Q 41.609375 37.453125 38.875 40.71875 
Q 34.671875 45.796875 27.984375 45.796875 
Q 21.921875 45.796875 17.796875 41.75 
Q 13.671875 37.703125 13.234375 30.90625 
z
" id="ArialMT-101"/>
       <path id="ArialMT-32"/>
       <path d="M 8.6875 0 
L 8.6875 45.015625 
L 0.921875 45.015625 
L 0.921875 51.859375 
L 8.6875 51.859375 
L 8.6875 57.375 
Q 8.6875 62.59375 9.625 65.140625 
Q 10.890625 68.5625 14.078125 70.671875 
Q 17.28125 72.796875 23.046875 72.796875 
Q 26.765625 72.796875 31.25 71.921875 
L 29.9375 64.265625 
Q 27.203125 64.75 24.75 64.75 
Q 20.75 64.75 19.09375 63.03125 
Q 17.4375 61.328125 17.4375 56.640625 
L 17.4375 51.859375 
L 27.546875 51.859375 
L 27.546875 45.015625 
L 17.4375 45.015625 
L 17.4375 0 
z
" id="ArialMT-102"/>
       <path d="M 6.5 0 
L 6.5 51.859375 
L 14.40625 51.859375 
L 14.40625 44 
Q 17.4375 49.515625 20 51.265625 
Q 22.5625 53.03125 25.640625 53.03125 
Q 30.078125 53.03125 34.671875 50.203125 
L 31.640625 42.046875 
Q 28.421875 43.953125 25.203125 43.953125 
Q 22.3125 43.953125 20.015625 42.21875 
Q 17.71875 40.484375 16.75 37.40625 
Q 15.28125 32.71875 15.28125 27.15625 
L 15.28125 0 
z
" id="ArialMT-114"/>
       <path d="M 3.328125 25.921875 
Q 3.328125 40.328125 11.328125 47.265625 
Q 18.015625 53.03125 27.640625 53.03125 
Q 38.328125 53.03125 45.109375 46.015625 
Q 51.90625 39.015625 51.90625 26.65625 
Q 51.90625 16.65625 48.90625 10.90625 
Q 45.90625 5.171875 40.15625 2 
Q 34.421875 -1.171875 27.640625 -1.171875 
Q 16.75 -1.171875 10.03125 5.8125 
Q 3.328125 12.796875 3.328125 25.921875 
z
M 12.359375 25.921875 
Q 12.359375 15.96875 16.703125 11.015625 
Q 21.046875 6.0625 27.640625 6.0625 
Q 34.1875 6.0625 38.53125 11.03125 
Q 42.875 16.015625 42.875 26.21875 
Q 42.875 35.84375 38.5 40.796875 
Q 34.125 45.75 27.640625 45.75 
Q 21.046875 45.75 16.703125 40.8125 
Q 12.359375 35.890625 12.359375 25.921875 
z
" id="ArialMT-111"/>
       <path d="M 6.59375 -19.875 
L 6.59375 51.859375 
L 14.59375 51.859375 
L 14.59375 45.125 
Q 17.4375 49.078125 21 51.046875 
Q 24.5625 53.03125 29.640625 53.03125 
Q 36.28125 53.03125 41.359375 49.609375 
Q 46.4375 46.1875 49.015625 39.953125 
Q 51.609375 33.734375 51.609375 26.3125 
Q 51.609375 18.359375 48.75 11.984375 
Q 45.90625 5.609375 40.453125 2.21875 
Q 35.015625 -1.171875 29 -1.171875 
Q 24.609375 -1.171875 21.109375 0.6875 
Q 17.625 2.546875 15.375 5.375 
L 15.375 -19.875 
z
M 14.546875 25.640625 
Q 14.546875 15.625 18.59375 10.84375 
Q 22.65625 6.0625 28.421875 6.0625 
Q 34.28125 6.0625 38.453125 11.015625 
Q 42.625 15.96875 42.625 26.375 
Q 42.625 36.28125 38.546875 41.203125 
Q 34.46875 46.140625 28.8125 46.140625 
Q 23.1875 46.140625 18.859375 40.890625 
Q 14.546875 35.640625 14.546875 25.640625 
z
" id="ArialMT-112"/>
       <path d="M 6.59375 0 
L 6.59375 51.859375 
L 14.5 51.859375 
L 14.5 44.484375 
Q 20.21875 53.03125 31 53.03125 
Q 35.6875 53.03125 39.625 51.34375 
Q 43.5625 49.65625 45.515625 46.921875 
Q 47.46875 44.1875 48.25 40.4375 
Q 48.734375 37.984375 48.734375 31.890625 
L 48.734375 0 
L 39.9375 0 
L 39.9375 31.546875 
Q 39.9375 36.921875 38.90625 39.578125 
Q 37.890625 42.234375 35.28125 43.8125 
Q 32.671875 45.40625 29.15625 45.40625 
Q 23.53125 45.40625 19.453125 41.84375 
Q 15.375 38.28125 15.375 28.328125 
L 15.375 0 
z
" id="ArialMT-110"/>
       <path d="M 4.984375 -4.296875 
L 13.53125 -5.5625 
Q 14.0625 -9.515625 16.5 -11.328125 
Q 19.78125 -13.765625 25.4375 -13.765625 
Q 31.546875 -13.765625 34.859375 -11.328125 
Q 38.1875 -8.890625 39.359375 -4.5 
Q 40.046875 -1.8125 39.984375 6.78125 
Q 34.234375 0 25.640625 0 
Q 14.9375 0 9.078125 7.71875 
Q 3.21875 15.4375 3.21875 26.21875 
Q 3.21875 33.640625 5.90625 39.90625 
Q 8.59375 46.1875 13.6875 49.609375 
Q 18.796875 53.03125 25.6875 53.03125 
Q 34.859375 53.03125 40.828125 45.609375 
L 40.828125 51.859375 
L 48.921875 51.859375 
L 48.921875 7.03125 
Q 48.921875 -5.078125 46.453125 -10.125 
Q 44 -15.1875 38.640625 -18.109375 
Q 33.296875 -21.046875 25.484375 -21.046875 
Q 16.21875 -21.046875 10.5 -16.875 
Q 4.78125 -12.703125 4.984375 -4.296875 
z
M 12.25 26.859375 
Q 12.25 16.65625 16.296875 11.96875 
Q 20.359375 7.28125 26.46875 7.28125 
Q 32.515625 7.28125 36.609375 11.9375 
Q 40.71875 16.609375 40.71875 26.5625 
Q 40.71875 36.078125 36.5 40.90625 
Q 32.28125 45.75 26.3125 45.75 
Q 20.453125 45.75 16.34375 40.984375 
Q 12.25 36.234375 12.25 26.859375 
z
" id="ArialMT-103"/>
      </defs>
      <use xlink:href="#ArialMT-116"/>
      <use x="27.783203" xlink:href="#ArialMT-105"/>
      <use x="50" xlink:href="#ArialMT-109"/>
      <use x="133.300781" xlink:href="#ArialMT-101"/>
      <use x="188.916016" xlink:href="#ArialMT-32"/>
      <use x="216.699219" xlink:href="#ArialMT-102"/>
      <use x="244.482422" xlink:href="#ArialMT-114"/>
      <use x="277.783203" xlink:href="#ArialMT-111"/>
      <use x="333.398438" xlink:href="#ArialMT-109"/>
      <use x="416.699219" xlink:href="#ArialMT-32"/>
      <use x="444.482422" xlink:href="#ArialMT-112"/>
      <use x="500.097656" xlink:href="#ArialMT-105"/>
      <use x="522.314453" xlink:href="#ArialMT-110"/>
      <use x="577.929688" xlink:href="#ArialMT-103"/>
      <use x="633.544922" xlink:href="#ArialMT-105"/>
      <use x="655.761719" xlink:href="#ArialMT-110"/>
      <use x="711.376953" xlink:href="#ArialMT-103"/>
     </g>
    </g>
   </g>
   <g id="matplotlib.axis_2">
    <g id="ytick_1">
     <g id="line2d_3">
      <defs>
       <path d="M 0 0 
L 9 0 
" id="mbc71e2e55c" style="stroke:#262626;stroke-width:1.875;"/>
      </defs>
      <g>
       <use style="fill:#262626;stroke:#262626;stroke-width:1.875;" x="18" xlink:href="#mbc71e2e55c" y="91.2"/>
      </g>
     </g>
     <g id="text_4">
      <!-- 0 -->
      <g style="fill:#262626;" transform="translate(7.159562 95.924156)scale(0.132 -0.132)">
       <use xlink:href="#ArialMT-48"/>
      </g>
     </g>
    </g>
    <g id="ytick_2">
     <g id="line2d_4">
      <g>
       <use style="fill:#262626;stroke:#262626;stroke-width:1.875;" x="18" xlink:href="#mbc71e2e55c" y="54.24"/>
      </g>
     </g>
     <g id="text_5">
      <!-- 1 -->
      <g style="fill:#262626;" transform="translate(7.159562 58.964156)scale(0.132 -0.132)">
       <defs>
        <path d="M 37.25 0 
L 28.46875 0 
L 28.46875 56 
Q 25.296875 52.984375 20.140625 49.953125 
Q 14.984375 46.921875 10.890625 45.40625 
L 10.890625 53.90625 
Q 18.265625 57.375 23.78125 62.296875 
Q 29.296875 67.234375 31.59375 71.875 
L 37.25 71.875 
z
" id="ArialMT-49"/>
       </defs>
       <use xlink:href="#ArialMT-49"/>
      </g>
     </g>
    </g>
    <g id="ytick_3">
     <g id="line2d_5">
      <g>
       <use style="fill:#262626;stroke:#262626;stroke-width:1.875;" x="18" xlink:href="#mbc71e2e55c" y="17.28"/>
      </g>
     </g>
     <g id="text_6">
      <!-- 2 -->
      <g style="fill:#262626;" transform="translate(7.159562 22.004156)scale(0.132 -0.132)">
       <defs>
        <path d="M 50.34375 8.453125 
L 50.34375 0 
L 3.03125 0 
Q 2.9375 3.171875 4.046875 6.109375 
Q 5.859375 10.9375 9.828125 15.625 
Q 13.8125 20.3125 21.34375 26.46875 
Q 33.015625 36.03125 37.109375 41.625 
Q 41.21875 47.21875 41.21875 52.203125 
Q 41.21875 57.421875 37.46875 61 
Q 33.734375 64.59375 27.734375 64.59375 
Q 21.390625 64.59375 17.578125 60.78125 
Q 13.765625 56.984375 13.71875 50.25 
L 4.6875 51.171875 
Q 5.609375 61.28125 11.65625 66.578125 
Q 17.71875 71.875 27.9375 71.875 
Q 38.234375 71.875 44.234375 66.15625 
Q 50.25 60.453125 50.25 52 
Q 50.25 47.703125 48.484375 43.546875 
Q 46.734375 39.40625 42.65625 34.8125 
Q 38.578125 30.21875 29.109375 22.21875 
Q 21.1875 15.578125 18.9375 13.203125 
Q 16.703125 10.84375 15.234375 8.453125 
z
" id="ArialMT-50"/>
       </defs>
       <use xlink:href="#ArialMT-50"/>
      </g>
     </g>
    </g>
    <g id="text_7">
     <!-- 1e−3 -->
     <g style="fill:#262626;" transform="translate(18 14.28)scale(0.132 -0.132)">
      <defs>
       <path d="M 52.828125 31.203125 
L 5.5625 31.203125 
L 5.5625 39.40625 
L 52.828125 39.40625 
z
" id="ArialMT-8722"/>
       <path d="M 4.203125 18.890625 
L 12.984375 20.0625 
Q 14.5 12.59375 18.140625 9.296875 
Q 21.78125 6 27 6 
Q 33.203125 6 37.46875 10.296875 
Q 41.75 14.59375 41.75 20.953125 
Q 41.75 27 37.796875 30.921875 
Q 33.84375 34.859375 27.734375 34.859375 
Q 25.25 34.859375 21.53125 33.890625 
L 22.515625 41.609375 
Q 23.390625 41.5 23.921875 41.5 
Q 29.546875 41.5 34.03125 44.421875 
Q 38.53125 47.359375 38.53125 53.46875 
Q 38.53125 58.296875 35.25 61.46875 
Q 31.984375 64.65625 26.8125 64.65625 
Q 21.6875 64.65625 18.265625 61.421875 
Q 14.84375 58.203125 13.875 51.765625 
L 5.078125 53.328125 
Q 6.6875 62.15625 12.390625 67.015625 
Q 18.109375 71.875 26.609375 71.875 
Q 32.46875 71.875 37.390625 69.359375 
Q 42.328125 66.84375 44.9375 62.5 
Q 47.5625 58.15625 47.5625 53.265625 
Q 47.5625 48.640625 45.0625 44.828125 
Q 42.578125 41.015625 37.703125 38.765625 
Q 44.046875 37.3125 47.5625 32.6875 
Q 51.078125 28.078125 51.078125 21.140625 
Q 51.078125 11.765625 44.234375 5.25 
Q 37.40625 -1.265625 26.953125 -1.265625 
Q 17.53125 -1.265625 11.296875 4.34375 
Q 5.078125 9.96875 4.203125 18.890625 
z
" id="ArialMT-51"/>
      </defs>
      <use xlink:href="#ArialMT-49"/>
      <use x="55.615234" xlink:href="#ArialMT-101"/>
      <use x="111.230469" xlink:href="#ArialMT-8722"/>
      <use x="169.628906" xlink:href="#ArialMT-51"/>
     </g>
    </g>
   </g>
   <g id="PolyCollection_1">
    <defs>
     <path d="M 18 -73.885043 
L 18 -51.542323 
L 18.372 -50.807689 
L 18.744 -51.968824 
L 19.116 -50.856243 
L 19.488 -49.702206 
L 19.86 -49.477931 
L 20.232 -48.667447 
L 20.604 -48.322233 
L 20.976 -47.120029 
L 21.348 -46.705786 
L 21.72 -47.464359 
L 22.092 -46.358249 
L 22.464 -45.384651 
L 22.836 -45.918214 
L 23.208 -45.509609 
L 23.58 -45.361604 
L 23.952 -44.634385 
L 24.324 -45.456947 
L 24.696 -46.082853 
L 25.068 -46.588353 
L 25.44 -47.452371 
L 25.812 -47.917605 
L 26.184 -49.447592 
L 26.556 -50.800829 
L 26.928 -50.782184 
L 27.3 -53.502191 
L 27.672 -53.497753 
L 28.044 -54.411122 
L 28.416 -56.05716 
L 28.788 -57.951663 
L 29.16 -58.597735 
L 29.532 -59.457692 
L 29.904 -60.474313 
L 30.276 -60.995969 
L 30.648 -60.791114 
L 31.02 -61.755132 
L 31.392 -62.033325 
L 31.764 -61.91485 
L 32.136 -62.121755 
L 32.508 -61.876707 
L 32.88 -60.818267 
L 33.252 -60.746555 
L 33.624 -59.618851 
L 33.996 -58.395793 
L 34.368 -57.219538 
L 34.74 -56.718014 
L 35.112 -57.115385 
L 35.484 -54.068508 
L 35.856 -52.871157 
L 36.228 -52.377076 
L 36.6 -50.97003 
L 36.972 -50.786137 
L 37.344 -49.299907 
L 37.716 -48.884155 
L 38.088 -48.49216 
L 38.46 -48.369508 
L 38.832 -47.915969 
L 39.204 -48.125027 
L 39.576 -47.276104 
L 39.948 -47.476137 
L 40.32 -46.372729 
L 40.692 -46.597411 
L 41.064 -45.610197 
L 41.436 -45.198586 
L 41.808 -44.948016 
L 42.18 -45.002246 
L 42.552 -44.225537 
L 42.924 -43.010523 
L 43.296 -43.27114 
L 43.668 -42.553093 
L 44.04 -43.32435 
L 44.412 -43.168839 
L 44.784 -42.129365 
L 45.156 -42.356664 
L 45.528 -41.649926 
L 45.9 -40.95055 
L 46.272 -41.089315 
L 46.644 -41.97338 
L 47.016 -42.255046 
L 47.388 -41.819628 
L 47.76 -42.132286 
L 48.132 -41.685658 
L 48.504 -41.941085 
L 48.876 -42.62221 
L 49.248 -42.984931 
L 49.62 -43.211075 
L 49.992 -42.946873 
L 50.364 -44.353706 
L 50.736 -44.733962 
L 51.108 -45.285584 
L 51.48 -45.419094 
L 51.852 -45.162606 
L 52.224 -47.336791 
L 52.596 -47.51573 
L 52.968 -46.863729 
L 53.34 -48.13715 
L 53.712 -48.298365 
L 54.084 -49.949064 
L 54.456 -50.771424 
L 54.828 -51.055388 
L 55.2 -52.258735 
L 55.572 -52.793826 
L 55.944 -54.063534 
L 56.316 -53.951941 
L 56.688 -53.972812 
L 57.06 -55.763822 
L 57.432 -56.755376 
L 57.804 -57.542344 
L 58.176 -57.76295 
L 58.548 -58.215845 
L 58.92 -59.211171 
L 59.292 -57.235478 
L 59.664 -58.826362 
L 60.036 -58.642128 
L 60.408 -58.809901 
L 60.78 -59.190513 
L 61.152 -59.825367 
L 61.524 -59.208224 
L 61.896 -59.993579 
L 62.268 -59.40767 
L 62.64 -59.203512 
L 63.012 -59.90441 
L 63.384 -61.870456 
L 63.756 -59.745043 
L 64.128 -62.338514 
L 64.5 -61.326591 
L 64.872 -61.315812 
L 65.244 -63.392923 
L 65.616 -64.181528 
L 65.988 -64.730392 
L 66.36 -67.521621 
L 66.732 -67.47576 
L 67.104 -69.908366 
L 67.476 -69.590894 
L 67.848 -70.954471 
L 68.22 -72.053259 
L 68.592 -73.172462 
L 68.964 -73.244174 
L 69.336 -75.358508 
L 69.708 -76.995665 
L 70.08 -76.488554 
L 70.452 -80.627817 
L 70.824 -79.030233 
L 71.196 -79.082758 
L 71.568 -81.246576 
L 71.94 -81.497499 
L 72.312 -83.38169 
L 72.684 -83.824487 
L 73.056 -83.464555 
L 73.428 -84.043829 
L 73.8 -84.976026 
L 74.172 -84.466417 
L 74.544 -84.90151 
L 74.916 -84.504834 
L 75.288 -85.35203 
L 75.66 -85.286916 
L 76.032 -85.51991 
L 76.404 -86.907205 
L 76.776 -85.875674 
L 77.148 -85.008279 
L 77.52 -87.335743 
L 77.892 -87.667964 
L 78.264 -88.294272 
L 78.636 -87.632027 
L 79.008 -87.716678 
L 79.38 -88.788577 
L 79.752 -90.182702 
L 80.124 -89.23292 
L 80.496 -89.707562 
L 80.868 -90.738594 
L 81.24 -90.720835 
L 81.612 -90.582519 
L 81.984 -91.506436 
L 82.356 -89.982065 
L 82.728 -91.469038 
L 83.1 -91.185138 
L 83.472 -91.521698 
L 83.844 -91.549518 
L 84.216 -91.540097 
L 84.588 -91.379644 
L 84.96 -92.440241 
L 85.332 -90.038177 
L 85.704 -90.905071 
L 86.076 -89.708715 
L 86.448 -89.435057 
L 86.82 -89.334173 
L 87.192 -87.136081 
L 87.564 -88.78019 
L 87.936 -87.013635 
L 88.308 -87.285725 
L 88.68 -86.344088 
L 89.052 -86.288203 
L 89.424 -85.999039 
L 89.796 -85.502844 
L 90.168 -84.662348 
L 90.54 -84.577745 
L 90.912 -83.731605 
L 91.284 -83.020355 
L 91.656 -81.140475 
L 92.028 -80.799188 
L 92.4 -82.79008 
L 92.772 -82.487502 
L 93.144 -81.432218 
L 93.516 -80.637679 
L 93.888 -79.086731 
L 94.26 -78.909228 
L 94.632 -79.362673 
L 95.004 -79.025699 
L 95.376 -79.149833 
L 95.748 -78.803446 
L 96.12 -79.543926 
L 96.492 -77.655557 
L 96.864 -77.80473 
L 97.236 -79.772055 
L 97.608 -77.598091 
L 97.98 -77.672368 
L 98.352 -77.95277 
L 98.724 -76.845064 
L 99.096 -76.352741 
L 99.468 -78.352922 
L 99.84 -75.030626 
L 100.212 -74.436038 
L 100.584 -77.08933 
L 100.956 -74.579003 
L 101.328 -73.578386 
L 101.7 -73.740237 
L 102.072 -74.961665 
L 102.444 -72.755026 
L 102.816 -72.892244 
L 103.188 -72.70233 
L 103.56 -72.411975 
L 103.932 -73.236955 
L 104.304 -70.859553 
L 104.676 -72.298132 
L 105.048 -71.306769 
L 105.42 -72.046156 
L 105.792 -72.47988 
L 106.164 -71.670858 
L 106.536 -71.663749 
L 106.908 -71.984036 
L 107.28 -70.863754 
L 107.652 -71.216883 
L 108.024 -71.263855 
L 108.396 -71.603324 
L 108.768 -71.044296 
L 109.14 -70.133226 
L 109.512 -70.098012 
L 109.884 -71.009323 
L 110.256 -68.888958 
L 110.628 -70.987552 
L 111 -68.90872 
L 111.372 -71.247608 
L 111.744 -70.300061 
L 112.116 -69.201403 
L 112.488 -70.894841 
L 112.86 -70.676089 
L 113.232 -68.696663 
L 113.604 -71.275838 
L 113.976 -72.273235 
L 114.348 -70.144773 
L 114.72 -71.821351 
L 115.092 -70.27368 
L 115.464 -71.992982 
L 115.836 -73.620255 
L 116.208 -71.761261 
L 116.58 -73.646 
L 116.952 -73.005561 
L 117.324 -72.01985 
L 117.696 -70.963078 
L 118.068 -73.856318 
L 118.44 -75.83708 
L 118.812 -74.240853 
L 119.184 -74.44669 
L 119.556 -75.726934 
L 119.928 -74.075767 
L 120.3 -76.267482 
L 120.672 -74.704241 
L 121.044 -77.187329 
L 121.416 -76.371047 
L 121.788 -75.680889 
L 122.16 -77.586434 
L 122.532 -76.561535 
L 122.904 -77.042865 
L 123.276 -77.647478 
L 123.648 -77.29214 
L 124.02 -76.325351 
L 124.392 -75.696593 
L 124.764 -75.246514 
L 125.136 -73.449081 
L 125.508 -73.789992 
L 125.88 -73.863172 
L 126.252 -73.478374 
L 126.624 -72.530352 
L 126.996 -73.321572 
L 127.368 -72.233359 
L 127.74 -70.16581 
L 128.112 -70.603874 
L 128.484 -70.072356 
L 128.856 -68.674271 
L 129.228 -68.671553 
L 129.228 -85.170237 
L 129.228 -85.170237 
L 128.856 -85.393036 
L 128.484 -87.980869 
L 128.112 -87.910114 
L 127.74 -87.433068 
L 127.368 -89.797099 
L 126.996 -91.651671 
L 126.624 -92.811902 
L 126.252 -92.926753 
L 125.88 -95.345588 
L 125.508 -95.184382 
L 125.136 -96.453829 
L 124.764 -98.544168 
L 124.392 -98.74701 
L 124.02 -100.968982 
L 123.648 -102.601648 
L 123.276 -103.855098 
L 122.904 -103.356985 
L 122.532 -102.813537 
L 122.16 -106.091161 
L 121.788 -103.598324 
L 121.416 -103.272073 
L 121.044 -105.79866 
L 120.672 -103.490725 
L 120.3 -104.720497 
L 119.928 -101.870332 
L 119.556 -104.406874 
L 119.184 -104.029828 
L 118.812 -103.384211 
L 118.44 -104.480831 
L 118.068 -105.246633 
L 117.696 -101.411808 
L 117.324 -101.656462 
L 116.952 -101.621851 
L 116.58 -101.186291 
L 116.208 -100.065202 
L 115.836 -101.969596 
L 115.464 -100.070218 
L 115.092 -99.092528 
L 114.72 -100.183788 
L 114.348 -97.221664 
L 113.976 -99.685975 
L 113.604 -98.160819 
L 113.232 -95.83496 
L 112.86 -99.690746 
L 112.488 -97.246848 
L 112.116 -98.53137 
L 111.744 -97.465367 
L 111.372 -97.395862 
L 111 -95.773276 
L 110.628 -98.034137 
L 110.256 -96.385547 
L 109.884 -97.197576 
L 109.512 -96.609745 
L 109.14 -97.751018 
L 108.768 -95.624925 
L 108.396 -96.657294 
L 108.024 -97.350952 
L 107.652 -99.435655 
L 107.28 -97.595177 
L 106.908 -99.725737 
L 106.536 -99.965937 
L 106.164 -97.918827 
L 105.792 -99.729816 
L 105.42 -100.648677 
L 105.048 -100.152915 
L 104.676 -101.648359 
L 104.304 -97.983926 
L 103.932 -102.401602 
L 103.56 -101.451076 
L 103.188 -100.544949 
L 102.816 -102.228862 
L 102.444 -102.365212 
L 102.072 -104.746466 
L 101.7 -104.120476 
L 101.328 -103.260512 
L 100.956 -104.92353 
L 100.584 -104.550919 
L 100.212 -104.291284 
L 99.84 -104.296429 
L 99.468 -105.507797 
L 99.096 -104.948894 
L 98.724 -105.296705 
L 98.352 -106.321291 
L 97.98 -106.057155 
L 97.608 -106.814919 
L 97.236 -107.62571 
L 96.864 -105.539928 
L 96.492 -105.800891 
L 96.12 -106.742693 
L 95.748 -107.488104 
L 95.376 -106.593012 
L 95.004 -105.166623 
L 94.632 -107.370923 
L 94.26 -107.405717 
L 93.888 -106.852933 
L 93.516 -107.24012 
L 93.144 -107.477036 
L 92.772 -110.866729 
L 92.4 -110.105394 
L 92.028 -110.411951 
L 91.656 -109.378885 
L 91.284 -110.853643 
L 90.912 -111.331942 
L 90.54 -112.993916 
L 90.168 -111.176906 
L 89.796 -113.801275 
L 89.424 -113.220062 
L 89.052 -113.487194 
L 88.68 -113.826645 
L 88.308 -114.236299 
L 87.936 -114.391412 
L 87.564 -115.985783 
L 87.192 -113.254014 
L 86.82 -116.370259 
L 86.448 -116.891184 
L 86.076 -116.793186 
L 85.704 -117.063701 
L 85.332 -115.997422 
L 84.96 -117.459015 
L 84.588 -116.527675 
L 84.216 -115.878011 
L 83.844 -114.036544 
L 83.472 -117.003317 
L 83.1 -114.613306 
L 82.728 -115.67477 
L 82.356 -115.085487 
L 81.984 -114.044365 
L 81.612 -113.851334 
L 81.24 -114.26073 
L 80.868 -114.838236 
L 80.496 -113.208243 
L 80.124 -113.231358 
L 79.752 -112.988737 
L 79.38 -111.113101 
L 79.008 -110.738796 
L 78.636 -110.482348 
L 78.264 -111.951091 
L 77.892 -110.303592 
L 77.52 -110.00326 
L 77.148 -107.382871 
L 76.776 -107.201286 
L 76.404 -109.388758 
L 76.032 -106.988035 
L 75.66 -106.436471 
L 75.288 -107.671102 
L 74.916 -104.326681 
L 74.544 -105.369234 
L 74.172 -105.170813 
L 73.8 -106.62061 
L 73.428 -105.454191 
L 73.056 -104.821504 
L 72.684 -104.315895 
L 72.312 -104.877118 
L 71.94 -102.530075 
L 71.568 -103.164741 
L 71.196 -101.160506 
L 70.824 -100.872007 
L 70.452 -102.59789 
L 70.08 -98.906797 
L 69.708 -98.871079 
L 69.336 -96.330605 
L 68.964 -95.328024 
L 68.592 -95.624854 
L 68.22 -95.041107 
L 67.848 -93.959289 
L 67.476 -92.580914 
L 67.104 -92.399558 
L 66.732 -90.613953 
L 66.36 -89.612226 
L 65.988 -87.838076 
L 65.616 -87.544592 
L 65.244 -85.911821 
L 64.872 -85.559656 
L 64.5 -85.090593 
L 64.128 -84.857644 
L 63.756 -82.410518 
L 63.384 -83.51401 
L 63.012 -81.594005 
L 62.64 -81.936371 
L 62.268 -81.605576 
L 61.896 -80.464682 
L 61.524 -80.180013 
L 61.152 -80.655334 
L 60.78 -79.722102 
L 60.408 -79.124899 
L 60.036 -78.837241 
L 59.664 -79.312842 
L 59.292 -77.606046 
L 58.92 -78.668903 
L 58.548 -78.112554 
L 58.176 -76.897391 
L 57.804 -76.996733 
L 57.432 -77.106468 
L 57.06 -74.455542 
L 56.688 -74.171821 
L 56.316 -73.226748 
L 55.944 -73.96465 
L 55.572 -72.58042 
L 55.2 -72.807482 
L 54.828 -72.557965 
L 54.456 -70.595854 
L 54.084 -71.373472 
L 53.712 -69.24336 
L 53.34 -70.16805 
L 52.968 -69.882325 
L 52.596 -69.617562 
L 52.224 -68.768008 
L 51.852 -66.442132 
L 51.48 -65.976742 
L 51.108 -65.352469 
L 50.736 -65.749328 
L 50.364 -64.44075 
L 49.992 -64.058804 
L 49.62 -61.947913 
L 49.248 -61.697287 
L 48.876 -60.876499 
L 48.504 -59.981818 
L 48.132 -58.72565 
L 47.76 -59.442163 
L 47.388 -59.286111 
L 47.016 -57.921186 
L 46.644 -57.873523 
L 46.272 -56.881973 
L 45.9 -56.3955 
L 45.528 -56.736156 
L 45.156 -56.985495 
L 44.784 -56.29436 
L 44.412 -56.891228 
L 44.04 -57.1124 
L 43.668 -56.180448 
L 43.296 -57.5679 
L 42.924 -57.379865 
L 42.552 -58.326538 
L 42.18 -60.128608 
L 41.808 -58.801896 
L 41.436 -59.661318 
L 41.064 -59.894166 
L 40.692 -61.302726 
L 40.32 -60.335184 
L 39.948 -62.306088 
L 39.576 -61.69093 
L 39.204 -61.973173 
L 38.832 -62.693769 
L 38.46 -63.097151 
L 38.088 -62.947051 
L 37.716 -63.884511 
L 37.344 -63.930501 
L 36.972 -64.991936 
L 36.6 -65.428713 
L 36.228 -67.712527 
L 35.856 -68.165225 
L 35.484 -69.503155 
L 35.112 -71.769448 
L 34.74 -72.021469 
L 34.368 -73.239166 
L 33.996 -73.82766 
L 33.624 -74.851944 
L 33.252 -75.527597 
L 32.88 -77.093289 
L 32.508 -77.986524 
L 32.136 -78.065377 
L 31.764 -78.574932 
L 31.392 -77.73442 
L 31.02 -79.210849 
L 30.648 -78.899715 
L 30.276 -78.503415 
L 29.904 -78.207011 
L 29.532 -76.904161 
L 29.16 -75.551201 
L 28.788 -74.331806 
L 28.416 -72.25776 
L 28.044 -70.745982 
L 27.672 -68.640256 
L 27.3 -67.752109 
L 26.928 -64.667555 
L 26.556 -65.067802 
L 26.184 -63.41025 
L 25.812 -62.226118 
L 25.44 -62.037782 
L 25.068 -61.805108 
L 24.696 -60.94105 
L 24.324 -60.579131 
L 23.952 -61.240381 
L 23.58 -62.496194 
L 23.208 -62.083842 
L 22.836 -62.829002 
L 22.464 -64.102823 
L 22.092 -64.889326 
L 21.72 -65.46186 
L 21.348 -66.318574 
L 20.976 -66.849034 
L 20.604 -68.843231 
L 20.232 -69.236989 
L 19.86 -70.5914 
L 19.488 -71.32739 
L 19.116 -72.661618 
L 18.744 -74.066725 
L 18.372 -73.319398 
L 18 -73.885043 
z
" id="m484d9b37b4" style="stroke:#8b0000;stroke-opacity:0.2;stroke-width:1.5;"/>
    </defs>
    <g clip-path="url(#pa4e8c632f2)">
     <use style="fill:#8b0000;fill-opacity:0.2;stroke:#8b0000;stroke-opacity:0.2;stroke-width:1.5;" x="0" xlink:href="#m484d9b37b4" y="144"/>
    </g>
   </g>
   <g id="PolyCollection_2">
    <defs>
     <path d="M 18 -65.164588 
L 18 -48.505296 
L 18.372 -45.47205 
L 18.744 -46.36479 
L 19.116 -45.297509 
L 19.488 -45.392777 
L 19.86 -43.985572 
L 20.232 -43.354948 
L 20.604 -42.322025 
L 20.976 -42.216997 
L 21.348 -40.701409 
L 21.72 -39.719403 
L 22.092 -38.909309 
L 22.464 -38.180735 
L 22.836 -37.546228 
L 23.208 -35.004302 
L 23.58 -34.529433 
L 23.952 -33.434981 
L 24.324 -31.988115 
L 24.696 -30.864777 
L 25.068 -30.008258 
L 25.44 -29.799719 
L 25.812 -29.57287 
L 26.184 -27.864276 
L 26.556 -28.453312 
L 26.928 -26.752683 
L 27.3 -27.32298 
L 27.672 -26.135774 
L 28.044 -27.506102 
L 28.416 -27.941417 
L 28.788 -26.609104 
L 29.16 -26.425841 
L 29.532 -26.366438 
L 29.904 -24.806162 
L 30.276 -26.117235 
L 30.648 -24.665582 
L 31.02 -24.372255 
L 31.392 -23.511177 
L 31.764 -24.396119 
L 32.136 -24.700832 
L 32.508 -23.600004 
L 32.88 -23.308951 
L 33.252 -23.714449 
L 33.624 -24.308482 
L 33.996 -24.08506 
L 34.368 -23.429149 
L 34.74 -23.319172 
L 35.112 -24.300969 
L 35.484 -23.698042 
L 35.856 -25.290922 
L 36.228 -23.634489 
L 36.6 -23.48339 
L 36.972 -24.239019 
L 37.344 -24.438926 
L 37.716 -24.51802 
L 38.088 -24.894095 
L 38.46 -24.871774 
L 38.832 -25.592451 
L 39.204 -24.602489 
L 39.576 -23.99436 
L 39.948 -24.567331 
L 40.32 -25.294895 
L 40.692 -24.444151 
L 41.064 -24.464138 
L 41.436 -24.668996 
L 41.808 -25.022741 
L 42.18 -26.534367 
L 42.552 -26.752639 
L 42.924 -27.052195 
L 43.296 -27.536562 
L 43.668 -28.198781 
L 44.04 -29.075796 
L 44.412 -29.259967 
L 44.784 -30.038949 
L 45.156 -31.762555 
L 45.528 -31.28854 
L 45.9 -33.297272 
L 46.272 -34.47051 
L 46.644 -37.37188 
L 47.016 -36.597958 
L 47.388 -37.55147 
L 47.76 -38.417293 
L 48.132 -39.001167 
L 48.504 -38.177711 
L 48.876 -38.882581 
L 49.248 -39.10338 
L 49.62 -38.999918 
L 49.992 -39.469528 
L 50.364 -38.863753 
L 50.736 -38.846443 
L 51.108 -38.962381 
L 51.48 -39.018485 
L 51.852 -38.997867 
L 52.224 -38.31922 
L 52.596 -38.696476 
L 52.968 -36.117172 
L 53.34 -37.098449 
L 53.712 -36.863003 
L 54.084 -37.904179 
L 54.456 -36.841593 
L 54.828 -37.027244 
L 55.2 -37.94262 
L 55.572 -37.42255 
L 55.944 -37.960583 
L 56.316 -38.92022 
L 56.688 -37.911404 
L 57.06 -40.250179 
L 57.432 -38.746205 
L 57.804 -39.596649 
L 58.176 -39.786409 
L 58.548 -39.809244 
L 58.92 -42.454617 
L 59.292 -41.755651 
L 59.664 -42.650275 
L 60.036 -43.269493 
L 60.408 -41.834105 
L 60.78 -43.529219 
L 61.152 -42.775552 
L 61.524 -42.666738 
L 61.896 -42.675638 
L 62.268 -41.535426 
L 62.64 -41.37625 
L 63.012 -41.985738 
L 63.384 -41.080497 
L 63.756 -41.056599 
L 64.128 -41.562287 
L 64.5 -41.250609 
L 64.872 -40.731001 
L 65.244 -41.880081 
L 65.616 -41.737211 
L 65.988 -42.242904 
L 66.36 -40.771601 
L 66.732 -41.829354 
L 67.104 -41.655469 
L 67.476 -42.193898 
L 67.848 -41.923929 
L 68.22 -41.530802 
L 68.592 -41.259058 
L 68.964 -42.371932 
L 69.336 -42.228971 
L 69.708 -41.812762 
L 70.08 -40.244124 
L 70.452 -42.030208 
L 70.824 -44.041908 
L 71.196 -42.437653 
L 71.568 -42.101717 
L 71.94 -41.541781 
L 72.312 -43.839675 
L 72.684 -42.230096 
L 73.056 -42.303816 
L 73.428 -43.777416 
L 73.8 -43.348334 
L 74.172 -42.380803 
L 74.544 -43.466907 
L 74.916 -43.388074 
L 75.288 -44.360817 
L 75.66 -43.975043 
L 76.032 -43.985062 
L 76.404 -44.874941 
L 76.776 -45.401458 
L 77.148 -45.911926 
L 77.52 -44.911392 
L 77.892 -46.203365 
L 78.264 -46.82839 
L 78.636 -45.945077 
L 79.008 -47.31017 
L 79.38 -46.637988 
L 79.752 -46.819603 
L 80.124 -47.028751 
L 80.496 -47.226523 
L 80.868 -47.325027 
L 81.24 -47.261607 
L 81.612 -48.092684 
L 81.984 -49.119149 
L 82.356 -49.366289 
L 82.728 -49.198471 
L 83.1 -50.754938 
L 83.472 -49.991973 
L 83.844 -51.046106 
L 84.216 -50.627478 
L 84.588 -50.876691 
L 84.96 -51.688347 
L 85.332 -51.991463 
L 85.704 -50.938547 
L 86.076 -52.12533 
L 86.448 -52.198358 
L 86.82 -52.319617 
L 87.192 -52.408105 
L 87.564 -52.033992 
L 87.936 -52.418851 
L 88.308 -51.842765 
L 88.68 -52.887085 
L 89.052 -52.350445 
L 89.424 -52.244156 
L 89.796 -52.771664 
L 90.168 -53.384843 
L 90.54 -53.246002 
L 90.912 -52.886205 
L 91.284 -52.092423 
L 91.656 -52.33748 
L 92.028 -52.530469 
L 92.4 -51.980346 
L 92.772 -51.367024 
L 93.144 -52.270574 
L 93.516 -52.740164 
L 93.888 -51.825534 
L 94.26 -50.570202 
L 94.632 -49.977916 
L 95.004 -51.623511 
L 95.376 -50.886602 
L 95.748 -47.867047 
L 96.12 -51.020272 
L 96.492 -49.832884 
L 96.864 -49.251127 
L 97.236 -48.763936 
L 97.608 -49.781214 
L 97.98 -49.126326 
L 98.352 -48.079576 
L 98.724 -49.078284 
L 99.096 -46.556227 
L 99.468 -47.746638 
L 99.84 -45.722518 
L 100.212 -47.859583 
L 100.584 -46.481096 
L 100.956 -46.225291 
L 101.328 -45.755473 
L 101.7 -44.572482 
L 102.072 -44.358664 
L 102.444 -44.247277 
L 102.816 -43.541077 
L 103.188 -42.97594 
L 103.56 -43.583571 
L 103.932 -43.045604 
L 104.304 -43.078098 
L 104.676 -42.16535 
L 105.048 -40.893042 
L 105.42 -40.498247 
L 105.792 -41.163854 
L 106.164 -39.876883 
L 106.536 -40.253645 
L 106.908 -39.036979 
L 107.28 -40.758806 
L 107.652 -39.881988 
L 108.024 -40.486723 
L 108.396 -40.868448 
L 108.768 -41.017565 
L 109.14 -42.292463 
L 109.512 -41.290931 
L 109.884 -41.918985 
L 110.256 -40.421197 
L 110.628 -41.172905 
L 111 -42.013203 
L 111.372 -41.315625 
L 111.744 -41.046906 
L 112.116 -42.352937 
L 112.488 -42.756982 
L 112.86 -42.528691 
L 113.232 -43.657072 
L 113.604 -43.328213 
L 113.976 -43.247226 
L 114.348 -43.333399 
L 114.72 -44.121689 
L 115.092 -43.075506 
L 115.464 -43.991915 
L 115.836 -44.138791 
L 116.208 -44.391241 
L 116.58 -44.880738 
L 116.952 -44.48018 
L 117.324 -43.13825 
L 117.696 -43.382846 
L 118.068 -42.274532 
L 118.44 -43.155009 
L 118.812 -43.684718 
L 119.184 -42.537631 
L 119.556 -43.332383 
L 119.928 -42.318234 
L 120.3 -42.283473 
L 120.672 -42.77158 
L 121.044 -42.324159 
L 121.416 -42.023072 
L 121.788 -41.638606 
L 122.16 -41.574856 
L 122.532 -41.520555 
L 122.904 -41.16227 
L 123.276 -40.522001 
L 123.648 -39.659582 
L 124.02 -39.557159 
L 124.392 -38.499085 
L 124.764 -39.089889 
L 125.136 -39.53563 
L 125.508 -38.452485 
L 125.88 -37.503648 
L 126.252 -37.249106 
L 126.624 -36.763624 
L 126.996 -36.711204 
L 127.368 -37.557488 
L 127.74 -38.129329 
L 128.112 -37.263954 
L 128.484 -36.097889 
L 128.856 -37.05221 
L 129.228 -36.197386 
L 129.228 -55.090071 
L 129.228 -55.090071 
L 128.856 -56.22857 
L 128.484 -56.157522 
L 128.112 -56.906998 
L 127.74 -57.005657 
L 127.368 -58.6005 
L 126.996 -57.883892 
L 126.624 -57.172506 
L 126.252 -57.471455 
L 125.88 -59.113322 
L 125.508 -58.848973 
L 125.136 -60.533818 
L 124.764 -58.737896 
L 124.392 -59.642166 
L 124.02 -59.142795 
L 123.648 -60.832325 
L 123.276 -62.446473 
L 122.904 -61.102159 
L 122.532 -62.515752 
L 122.16 -61.695564 
L 121.788 -62.112334 
L 121.416 -62.783135 
L 121.044 -62.7576 
L 120.672 -63.469699 
L 120.3 -61.371751 
L 119.928 -62.739796 
L 119.556 -62.292474 
L 119.184 -62.534853 
L 118.812 -63.445258 
L 118.44 -62.479373 
L 118.068 -61.8347 
L 117.696 -61.932977 
L 117.324 -62.911739 
L 116.952 -63.104403 
L 116.58 -63.079657 
L 116.208 -62.364656 
L 115.836 -61.695702 
L 115.464 -62.048524 
L 115.092 -60.925875 
L 114.72 -61.66381 
L 114.348 -60.087403 
L 113.976 -60.132892 
L 113.604 -60.400538 
L 113.232 -60.990447 
L 112.86 -60.560544 
L 112.488 -59.852194 
L 112.116 -58.704031 
L 111.744 -58.364009 
L 111.372 -58.509067 
L 111 -58.95931 
L 110.628 -59.225345 
L 110.256 -58.780501 
L 109.884 -59.76647 
L 109.512 -60.167416 
L 109.14 -60.4427 
L 108.768 -59.890381 
L 108.396 -61.103004 
L 108.024 -59.682342 
L 107.652 -59.413935 
L 107.28 -60.479681 
L 106.908 -60.069747 
L 106.536 -59.278246 
L 106.164 -60.356032 
L 105.792 -62.099074 
L 105.42 -61.226721 
L 105.048 -61.164911 
L 104.676 -62.822279 
L 104.304 -63.742988 
L 103.932 -64.099578 
L 103.56 -64.974763 
L 103.188 -65.35697 
L 102.816 -65.566027 
L 102.444 -65.642661 
L 102.072 -66.764411 
L 101.7 -67.718095 
L 101.328 -67.277644 
L 100.956 -68.900744 
L 100.584 -70.016447 
L 100.212 -69.629865 
L 99.84 -70.055748 
L 99.468 -72.208761 
L 99.096 -70.358349 
L 98.724 -72.942425 
L 98.352 -73.047813 
L 97.98 -74.276925 
L 97.608 -73.898639 
L 97.236 -73.750846 
L 96.864 -74.098492 
L 96.492 -75.133353 
L 96.12 -76.247204 
L 95.748 -71.954264 
L 95.376 -75.513228 
L 95.004 -75.943044 
L 94.632 -73.77912 
L 94.26 -73.617904 
L 93.888 -74.941375 
L 93.516 -75.548693 
L 93.144 -74.076865 
L 92.772 -74.419199 
L 92.4 -73.456963 
L 92.028 -74.50328 
L 91.656 -73.083089 
L 91.284 -72.727274 
L 90.912 -72.115204 
L 90.54 -71.482436 
L 90.168 -71.509468 
L 89.796 -70.210797 
L 89.424 -69.802212 
L 89.052 -70.263945 
L 88.68 -68.953905 
L 88.308 -68.533105 
L 87.936 -68.377424 
L 87.564 -67.61885 
L 87.192 -68.284881 
L 86.82 -67.580436 
L 86.448 -66.133526 
L 86.076 -66.464842 
L 85.704 -65.549368 
L 85.332 -65.571049 
L 84.96 -65.72536 
L 84.588 -64.662265 
L 84.216 -65.662748 
L 83.844 -65.048275 
L 83.472 -64.93468 
L 83.1 -64.743117 
L 82.728 -64.852323 
L 82.356 -64.571398 
L 81.984 -64.688092 
L 81.612 -63.057436 
L 81.24 -63.214434 
L 80.868 -62.754207 
L 80.496 -62.610214 
L 80.124 -63.469025 
L 79.752 -63.039845 
L 79.38 -62.869457 
L 79.008 -63.963004 
L 78.636 -62.691194 
L 78.264 -64.214995 
L 77.892 -63.159216 
L 77.52 -63.21884 
L 77.148 -63.935436 
L 76.776 -63.952265 
L 76.404 -63.973519 
L 76.032 -63.804039 
L 75.66 -63.775821 
L 75.288 -64.318945 
L 74.916 -64.352426 
L 74.544 -64.872484 
L 74.172 -63.678874 
L 73.8 -65.203256 
L 73.428 -65.290833 
L 73.056 -64.528828 
L 72.684 -64.867076 
L 72.312 -66.148677 
L 71.94 -64.995452 
L 71.568 -65.633974 
L 71.196 -66.434401 
L 70.824 -67.10241 
L 70.452 -66.25297 
L 70.08 -64.495906 
L 69.708 -65.608635 
L 69.336 -65.509003 
L 68.964 -65.988337 
L 68.592 -65.189008 
L 68.22 -65.222214 
L 67.848 -65.780685 
L 67.476 -66.457829 
L 67.104 -65.153792 
L 66.732 -65.672046 
L 66.36 -63.587845 
L 65.988 -65.19107 
L 65.616 -64.415191 
L 65.244 -64.960757 
L 64.872 -64.344294 
L 64.5 -65.075456 
L 64.128 -64.241952 
L 63.756 -63.798923 
L 63.384 -64.654197 
L 63.012 -64.138366 
L 62.64 -63.031305 
L 62.268 -63.658374 
L 61.896 -65.126883 
L 61.524 -64.716914 
L 61.152 -64.696316 
L 60.78 -65.792817 
L 60.408 -64.091369 
L 60.036 -62.794308 
L 59.664 -63.525967 
L 59.292 -61.946774 
L 58.92 -63.218524 
L 58.548 -62.130067 
L 58.176 -60.420136 
L 57.804 -59.499579 
L 57.432 -60.038317 
L 57.06 -60.043499 
L 56.688 -59.393884 
L 56.316 -60.104015 
L 55.944 -58.240082 
L 55.572 -58.242529 
L 55.2 -59.170011 
L 54.828 -58.780377 
L 54.456 -57.275722 
L 54.084 -58.450175 
L 53.712 -58.086231 
L 53.34 -57.907245 
L 52.968 -57.357996 
L 52.596 -58.767754 
L 52.224 -59.177864 
L 51.852 -59.842432 
L 51.48 -60.52183 
L 51.108 -60.480839 
L 50.736 -60.275524 
L 50.364 -60.420017 
L 49.992 -61.209233 
L 49.62 -59.97691 
L 49.248 -60.965179 
L 48.876 -59.193755 
L 48.504 -59.472928 
L 48.132 -61.239402 
L 47.76 -59.378972 
L 47.388 -59.724577 
L 47.016 -59.868544 
L 46.644 -58.732108 
L 46.272 -56.059048 
L 45.9 -53.569908 
L 45.528 -53.702842 
L 45.156 -52.573862 
L 44.784 -50.605798 
L 44.412 -49.44475 
L 44.04 -49.855064 
L 43.668 -49.176106 
L 43.296 -49.058838 
L 42.924 -47.659175 
L 42.552 -48.030878 
L 42.18 -46.494678 
L 41.808 -44.448633 
L 41.436 -44.743855 
L 41.064 -43.176136 
L 40.692 -43.023702 
L 40.32 -43.195196 
L 39.948 -42.753332 
L 39.576 -41.244611 
L 39.204 -41.64018 
L 38.832 -42.953239 
L 38.46 -43.763458 
L 38.088 -42.225322 
L 37.716 -42.846163 
L 37.344 -42.617835 
L 36.972 -41.996263 
L 36.6 -42.53692 
L 36.228 -42.270439 
L 35.856 -43.70343 
L 35.484 -43.33518 
L 35.112 -42.497963 
L 34.74 -42.432386 
L 34.368 -41.813361 
L 33.996 -43.172015 
L 33.624 -43.206105 
L 33.252 -42.005361 
L 32.88 -41.768116 
L 32.508 -41.925804 
L 32.136 -42.454761 
L 31.764 -42.935902 
L 31.392 -41.26665 
L 31.02 -43.507914 
L 30.648 -43.114959 
L 30.276 -43.06166 
L 29.904 -42.160023 
L 29.532 -44.230923 
L 29.16 -44.477 
L 28.788 -44.760696 
L 28.416 -47.018868 
L 28.044 -46.522698 
L 27.672 -45.543763 
L 27.3 -47.821375 
L 26.928 -46.496678 
L 26.556 -47.88561 
L 26.184 -46.920061 
L 25.812 -48.030941 
L 25.44 -47.85884 
L 25.068 -48.54191 
L 24.696 -49.530513 
L 24.324 -51.9838 
L 23.952 -53.01126 
L 23.58 -52.734637 
L 23.208 -54.720999 
L 22.836 -55.222089 
L 22.464 -56.115618 
L 22.092 -57.101624 
L 21.72 -57.225892 
L 21.348 -58.425999 
L 20.976 -58.192915 
L 20.604 -58.709848 
L 20.232 -59.908246 
L 19.86 -60.022879 
L 19.488 -62.421913 
L 19.116 -61.655398 
L 18.744 -62.262057 
L 18.372 -62.434369 
L 18 -65.164588 
z
" id="mcf062306c2" style="stroke:#808080;stroke-opacity:0.2;stroke-width:1.5;"/>
    </defs>
    <g clip-path="url(#pa4e8c632f2)">
     <use style="fill:#808080;fill-opacity:0.2;stroke:#808080;stroke-opacity:0.2;stroke-width:1.5;" x="0" xlink:href="#mcf062306c2" y="144"/>
    </g>
   </g>
   <g id="PolyCollection_3">
    <defs>
     <path d="M 36.6 -52.8 
L 36.6 -45.408 
L 55.2 -45.408 
L 55.2 -52.8 
L 55.2 -52.8 
L 36.6 -52.8 
z
" id="m3c7181394d" style="stroke:#000000;stroke-opacity:0.5;stroke-width:1.5;"/>
    </defs>
    <g clip-path="url(#pa4e8c632f2)">
     <use style="fill-opacity:0.5;stroke:#000000;stroke-opacity:0.5;stroke-width:1.5;" x="0" xlink:href="#m3c7181394d" y="144"/>
    </g>
   </g>
   <g id="line2d_6">
    <path clip-path="url(#pa4e8c632f2)" d="M 18 80.626538 
L 19.116 82.696557 
L 22.836 90.319254 
L 23.58 90.997993 
L 23.952 91.105459 
L 24.324 91.050978 
L 24.696 90.826508 
L 25.068 90.415688 
L 25.812 88.974464 
L 26.556 86.729231 
L 27.672 82.351745 
L 28.788 77.888992 
L 29.532 75.584872 
L 30.276 74.165299 
L 30.648 73.809714 
L 31.02 73.681131 
L 31.392 73.75992 
L 31.764 74.018864 
L 32.508 74.959812 
L 33.252 76.319092 
L 34.368 78.948696 
L 37.344 86.754067 
L 38.088 88.078082 
L 38.832 89.047694 
L 39.948 90.095592 
L 41.436 91.480719 
L 43.668 93.748742 
L 44.412 94.251638 
L 45.156 94.502666 
L 45.9 94.459939 
L 46.644 94.1135 
L 47.388 93.480903 
L 48.504 92.099424 
L 50.364 89.229078 
L 54.828 82.009178 
L 58.176 76.160975 
L 59.292 74.826735 
L 60.408 73.996512 
L 62.268 72.872529 
L 63.012 72.158081 
L 63.756 71.182056 
L 64.872 69.210634 
L 65.988 66.740269 
L 68.22 61.081983 
L 71.196 53.503865 
L 72.312 51.314515 
L 73.056 50.23502 
L 73.8 49.447108 
L 74.916 48.616714 
L 76.404 47.554602 
L 77.892 46.13391 
L 80.496 43.559436 
L 82.356 42.005083 
L 83.472 41.391117 
L 84.216 41.216861 
L 84.96 41.249739 
L 85.704 41.482675 
L 86.448 41.90257 
L 87.564 42.850453 
L 89.052 44.562321 
L 93.144 49.623451 
L 94.26 50.709681 
L 95.748 51.801157 
L 99.468 54.241123 
L 106.908 59.760033 
L 108.024 60.298938 
L 109.14 60.612039 
L 110.256 60.696006 
L 111.744 60.525845 
L 112.86 60.165539 
L 113.976 59.496093 
L 115.092 58.498552 
L 117.324 56.364661 
L 119.928 54.369679 
L 121.044 53.795667 
L 121.788 53.71864 
L 122.532 54.002486 
L 123.276 54.700114 
L 124.02 55.803218 
L 125.136 58.039258 
L 128.112 64.534248 
L 129.228 66.336151 
L 129.228 66.336151 
" style="fill:none;stroke:#8b0000;stroke-linecap:round;stroke-width:2.25;"/>
   </g>
   <g id="line2d_7">
    <path clip-path="url(#pa4e8c632f2)" d="M 18 89.357642 
L 18.744 90.393542 
L 20.604 93.200062 
L 21.348 94.204353 
L 22.092 95.746778 
L 23.952 100.586886 
L 25.44 105.190096 
L 26.184 106.480801 
L 26.928 107.164939 
L 28.044 107.753871 
L 28.788 108.591511 
L 31.02 111.54522 
L 31.764 111.901666 
L 32.508 111.825169 
L 35.484 111.022026 
L 36.972 111.072354 
L 39.576 111.330594 
L 40.32 111.156406 
L 41.064 110.712321 
L 41.808 109.987129 
L 42.552 108.924414 
L 43.296 107.481386 
L 44.412 104.722543 
L 47.388 96.494878 
L 48.132 95.223338 
L 48.876 94.498292 
L 49.62 94.25968 
L 50.364 94.396061 
L 51.108 94.795705 
L 52.596 95.739991 
L 53.34 96.031937 
L 54.084 96.142125 
L 54.828 96.046215 
L 55.572 95.738532 
L 56.316 95.211396 
L 57.06 94.439489 
L 59.664 91.160055 
L 60.408 90.636354 
L 61.152 90.464186 
L 61.896 90.586467 
L 64.128 91.300401 
L 65.244 91.256174 
L 67.104 90.821875 
L 69.708 90.170416 
L 70.824 90.231593 
L 74.172 90.928254 
L 75.66 90.769404 
L 77.148 90.423518 
L 78.264 89.995404 
L 79.38 89.372062 
L 81.24 88.003357 
L 82.728 86.97894 
L 84.588 86.007909 
L 86.076 85.182808 
L 87.936 83.754842 
L 89.052 83.00299 
L 90.168 82.526948 
L 91.656 82.23183 
L 92.772 82.196953 
L 93.888 82.421532 
L 95.004 82.992335 
L 96.492 84.141864 
L 100.584 87.742495 
L 102.444 89.737937 
L 104.676 92.160031 
L 105.792 93.093884 
L 106.908 93.687185 
L 107.652 93.8582 
L 108.396 93.85468 
L 109.512 93.603369 
L 115.836 91.644859 
L 117.324 91.494844 
L 118.812 91.59346 
L 120.3 91.922996 
L 121.416 92.475647 
L 122.532 93.424541 
L 126.252 97.235678 
L 127.368 97.784618 
L 128.484 98.00439 
L 129.228 98.006348 
L 129.228 98.006348 
" style="fill:none;stroke:#000000;stroke-linecap:round;stroke-width:2.25;"/>
   </g>
   <g id="line2d_8">
    <path clip-path="url(#pa4e8c632f2)" d="M 18 91.2 
L 129.228 91.2 
L 129.228 91.2 
" style="fill:none;stroke:#000000;stroke-dasharray:8.325,3.6;stroke-dashoffset:0;stroke-width:2.25;"/>
   </g>
   <g id="patch_3">
    <path d="M 18 128.16 
L 18 17.28 
" style="fill:none;stroke:#262626;stroke-linecap:square;stroke-linejoin:miter;stroke-width:1.875;"/>
   </g>
   <g id="patch_4">
    <path d="M 18 128.16 
L 129.6 128.16 
" style="fill:none;stroke:#262626;stroke-linecap:square;stroke-linejoin:miter;stroke-width:1.875;"/>
   </g>
  </g>
 </g>
 <defs>
  <clipPath id="pa4e8c632f2">
   <rect height="110.88" width="111.6" x="18" y="17.28"/>
  </clipPath>
 </defs>
</svg>
