<?xml version="1.0" encoding="utf-8" standalone="no"?>
<!DOCTYPE svg PUBLIC "-//W3C//DTD SVG 1.1//EN"
  "http://www.w3.org/Graphics/SVG/1.1/DTD/svg11.dtd">
<!-- Created with matplotlib (https://matplotlib.org/) -->
<svg height="144pt" version="1.1" viewBox="0 0 144 144" width="144pt" xmlns="http://www.w3.org/2000/svg" xmlns:xlink="http://www.w3.org/1999/xlink">
 <metadata>
  <rdf:RDF xmlns:cc="http://creativecommons.org/ns#" xmlns:dc="http://purl.org/dc/elements/1.1/" xmlns:rdf="http://www.w3.org/1999/02/22-rdf-syntax-ns#">
   <cc:Work>
    <dc:type rdf:resource="http://purl.org/dc/dcmitype/StillImage"/>
    <dc:date>2021-07-30T14:52:18.990115</dc:date>
    <dc:format>image/svg+xml</dc:format>
    <dc:creator>
     <cc:Agent>
      <dc:title>Matplotlib v3.3.2, https://matplotlib.org/</dc:title>
     </cc:Agent>
    </dc:creator>
   </cc:Work>
  </rdf:RDF>
 </metadata>
 <defs>
  <style type="text/css">*{stroke-linecap:butt;stroke-linejoin:round;}</style>
 </defs>
 <g id="figure_1">
  <g id="patch_1">
   <path d="M 0 144 
L 144 144 
L 144 0 
L 0 0 
z
" style="fill:#ffffff;"/>
  </g>
  <g id="axes_1">
   <g id="patch_2">
    <path d="M 18 128.16 
L 129.6 128.16 
L 129.6 17.28 
L 18 17.28 
z
" style="fill:#ffffff;"/>
   </g>
   <g id="matplotlib.axis_1">
    <g id="xtick_1">
     <g id="line2d_1">
      <defs>
       <path d="M 0 0 
L 0 -9 
" id="m298a00751c" style="stroke:#262626;stroke-width:1.875;"/>
      </defs>
      <g>
       <use style="fill:#262626;stroke:#262626;stroke-width:1.875;" x="36.6" xlink:href="#m298a00751c" y="128.16"/>
      </g>
     </g>
     <g id="text_1">
      <!-- 0.0 -->
      <g style="fill:#262626;" transform="translate(27.426 141.108313)scale(0.132 -0.132)">
       <defs>
        <path d="M 4.15625 35.296875 
Q 4.15625 48 6.765625 55.734375 
Q 9.375 63.484375 14.515625 67.671875 
Q 19.671875 71.875 27.484375 71.875 
Q 33.25 71.875 37.59375 69.546875 
Q 41.9375 67.234375 44.765625 62.859375 
Q 47.609375 58.5 49.21875 52.21875 
Q 50.828125 45.953125 50.828125 35.296875 
Q 50.828125 22.703125 48.234375 14.96875 
Q 45.65625 7.234375 40.5 3 
Q 35.359375 -1.21875 27.484375 -1.21875 
Q 17.140625 -1.21875 11.234375 6.203125 
Q 4.15625 15.140625 4.15625 35.296875 
z
M 13.1875 35.296875 
Q 13.1875 17.671875 17.3125 11.828125 
Q 21.4375 6 27.484375 6 
Q 33.546875 6 37.671875 11.859375 
Q 41.796875 17.71875 41.796875 35.296875 
Q 41.796875 52.984375 37.671875 58.78125 
Q 33.546875 64.59375 27.390625 64.59375 
Q 21.34375 64.59375 17.71875 59.46875 
Q 13.1875 52.9375 13.1875 35.296875 
z
" id="ArialMT-48"/>
        <path d="M 9.078125 0 
L 9.078125 10.015625 
L 19.09375 10.015625 
L 19.09375 0 
z
" id="ArialMT-46"/>
       </defs>
       <use xlink:href="#ArialMT-48"/>
       <use x="55.615234" xlink:href="#ArialMT-46"/>
       <use x="83.398438" xlink:href="#ArialMT-48"/>
      </g>
     </g>
    </g>
    <g id="xtick_2">
     <g id="line2d_2">
      <g>
       <use style="fill:#262626;stroke:#262626;stroke-width:1.875;" x="129.6" xlink:href="#m298a00751c" y="128.16"/>
      </g>
     </g>
     <g id="text_2">
      <!-- 0.5 -->
      <g style="fill:#262626;" transform="translate(120.426 141.108313)scale(0.132 -0.132)">
       <defs>
        <path d="M 4.15625 18.75 
L 13.375 19.53125 
Q 14.40625 12.796875 18.140625 9.390625 
Q 21.875 6 27.15625 6 
Q 33.5 6 37.890625 10.78125 
Q 42.28125 15.578125 42.28125 23.484375 
Q 42.28125 31 38.0625 35.34375 
Q 33.84375 39.703125 27 39.703125 
Q 22.75 39.703125 19.328125 37.765625 
Q 15.921875 35.84375 13.96875 32.765625 
L 5.71875 33.84375 
L 12.640625 70.609375 
L 48.25 70.609375 
L 48.25 62.203125 
L 19.671875 62.203125 
L 15.828125 42.96875 
Q 22.265625 47.46875 29.34375 47.46875 
Q 38.71875 47.46875 45.15625 40.96875 
Q 51.609375 34.46875 51.609375 24.265625 
Q 51.609375 14.546875 45.953125 7.46875 
Q 39.0625 -1.21875 27.15625 -1.21875 
Q 17.390625 -1.21875 11.203125 4.25 
Q 5.03125 9.71875 4.15625 18.75 
z
" id="ArialMT-53"/>
       </defs>
       <use xlink:href="#ArialMT-48"/>
       <use x="55.615234" xlink:href="#ArialMT-46"/>
       <use x="83.398438" xlink:href="#ArialMT-53"/>
      </g>
     </g>
    </g>
    <g id="text_3">
     <!-- time from pinging -->
     <g style="fill:#262626;" transform="translate(18.5805 158.214562)scale(0.144 -0.144)">
      <defs>
       <path d="M 25.78125 7.859375 
L 27.046875 0.09375 
Q 23.34375 -0.6875 20.40625 -0.6875 
Q 15.625 -0.6875 12.984375 0.828125 
Q 10.359375 2.34375 9.28125 4.8125 
Q 8.203125 7.28125 8.203125 15.1875 
L 8.203125 45.015625 
L 1.765625 45.015625 
L 1.765625 51.859375 
L 8.203125 51.859375 
L 8.203125 64.703125 
L 16.9375 69.96875 
L 16.9375 51.859375 
L 25.78125 51.859375 
L 25.78125 45.015625 
L 16.9375 45.015625 
L 16.9375 14.703125 
Q 16.9375 10.9375 17.40625 9.859375 
Q 17.875 8.796875 18.921875 8.15625 
Q 19.96875 7.515625 21.921875 7.515625 
Q 23.390625 7.515625 25.78125 7.859375 
z
" id="ArialMT-116"/>
       <path d="M 6.640625 61.46875 
L 6.640625 71.578125 
L 15.4375 71.578125 
L 15.4375 61.46875 
z
M 6.640625 0 
L 6.640625 51.859375 
L 15.4375 51.859375 
L 15.4375 0 
z
" id="ArialMT-105"/>
       <path d="M 6.59375 0 
L 6.59375 51.859375 
L 14.453125 51.859375 
L 14.453125 44.578125 
Q 16.890625 48.390625 20.9375 50.703125 
Q 25 53.03125 30.171875 53.03125 
Q 35.9375 53.03125 39.625 50.640625 
Q 43.3125 48.25 44.828125 43.953125 
Q 50.984375 53.03125 60.84375 53.03125 
Q 68.5625 53.03125 72.703125 48.75 
Q 76.859375 44.484375 76.859375 35.59375 
L 76.859375 0 
L 68.109375 0 
L 68.109375 32.671875 
Q 68.109375 37.9375 67.25 40.25 
Q 66.40625 42.578125 64.15625 43.984375 
Q 61.921875 45.40625 58.890625 45.40625 
Q 53.421875 45.40625 49.796875 41.765625 
Q 46.1875 38.140625 46.1875 30.125 
L 46.1875 0 
L 37.40625 0 
L 37.40625 33.6875 
Q 37.40625 39.546875 35.25 42.46875 
Q 33.109375 45.40625 28.21875 45.40625 
Q 24.515625 45.40625 21.359375 43.453125 
Q 18.21875 41.5 16.796875 37.734375 
Q 15.375 33.984375 15.375 26.90625 
L 15.375 0 
z
" id="ArialMT-109"/>
       <path d="M 42.09375 16.703125 
L 51.171875 15.578125 
Q 49.03125 7.625 43.21875 3.21875 
Q 37.40625 -1.171875 28.375 -1.171875 
Q 17 -1.171875 10.328125 5.828125 
Q 3.65625 12.84375 3.65625 25.484375 
Q 3.65625 38.578125 10.390625 45.796875 
Q 17.140625 53.03125 27.875 53.03125 
Q 38.28125 53.03125 44.875 45.953125 
Q 51.46875 38.875 51.46875 26.03125 
Q 51.46875 25.25 51.421875 23.6875 
L 12.75 23.6875 
Q 13.234375 15.140625 17.578125 10.59375 
Q 21.921875 6.0625 28.421875 6.0625 
Q 33.25 6.0625 36.671875 8.59375 
Q 40.09375 11.140625 42.09375 16.703125 
z
M 13.234375 30.90625 
L 42.1875 30.90625 
Q 41.609375 37.453125 38.875 40.71875 
Q 34.671875 45.796875 27.984375 45.796875 
Q 21.921875 45.796875 17.796875 41.75 
Q 13.671875 37.703125 13.234375 30.90625 
z
" id="ArialMT-101"/>
       <path id="ArialMT-32"/>
       <path d="M 8.6875 0 
L 8.6875 45.015625 
L 0.921875 45.015625 
L 0.921875 51.859375 
L 8.6875 51.859375 
L 8.6875 57.375 
Q 8.6875 62.59375 9.625 65.140625 
Q 10.890625 68.5625 14.078125 70.671875 
Q 17.28125 72.796875 23.046875 72.796875 
Q 26.765625 72.796875 31.25 71.921875 
L 29.9375 64.265625 
Q 27.203125 64.75 24.75 64.75 
Q 20.75 64.75 19.09375 63.03125 
Q 17.4375 61.328125 17.4375 56.640625 
L 17.4375 51.859375 
L 27.546875 51.859375 
L 27.546875 45.015625 
L 17.4375 45.015625 
L 17.4375 0 
z
" id="ArialMT-102"/>
       <path d="M 6.5 0 
L 6.5 51.859375 
L 14.40625 51.859375 
L 14.40625 44 
Q 17.4375 49.515625 20 51.265625 
Q 22.5625 53.03125 25.640625 53.03125 
Q 30.078125 53.03125 34.671875 50.203125 
L 31.640625 42.046875 
Q 28.421875 43.953125 25.203125 43.953125 
Q 22.3125 43.953125 20.015625 42.21875 
Q 17.71875 40.484375 16.75 37.40625 
Q 15.28125 32.71875 15.28125 27.15625 
L 15.28125 0 
z
" id="ArialMT-114"/>
       <path d="M 3.328125 25.921875 
Q 3.328125 40.328125 11.328125 47.265625 
Q 18.015625 53.03125 27.640625 53.03125 
Q 38.328125 53.03125 45.109375 46.015625 
Q 51.90625 39.015625 51.90625 26.65625 
Q 51.90625 16.65625 48.90625 10.90625 
Q 45.90625 5.171875 40.15625 2 
Q 34.421875 -1.171875 27.640625 -1.171875 
Q 16.75 -1.171875 10.03125 5.8125 
Q 3.328125 12.796875 3.328125 25.921875 
z
M 12.359375 25.921875 
Q 12.359375 15.96875 16.703125 11.015625 
Q 21.046875 6.0625 27.640625 6.0625 
Q 34.1875 6.0625 38.53125 11.03125 
Q 42.875 16.015625 42.875 26.21875 
Q 42.875 35.84375 38.5 40.796875 
Q 34.125 45.75 27.640625 45.75 
Q 21.046875 45.75 16.703125 40.8125 
Q 12.359375 35.890625 12.359375 25.921875 
z
" id="ArialMT-111"/>
       <path d="M 6.59375 -19.875 
L 6.59375 51.859375 
L 14.59375 51.859375 
L 14.59375 45.125 
Q 17.4375 49.078125 21 51.046875 
Q 24.5625 53.03125 29.640625 53.03125 
Q 36.28125 53.03125 41.359375 49.609375 
Q 46.4375 46.1875 49.015625 39.953125 
Q 51.609375 33.734375 51.609375 26.3125 
Q 51.609375 18.359375 48.75 11.984375 
Q 45.90625 5.609375 40.453125 2.21875 
Q 35.015625 -1.171875 29 -1.171875 
Q 24.609375 -1.171875 21.109375 0.6875 
Q 17.625 2.546875 15.375 5.375 
L 15.375 -19.875 
z
M 14.546875 25.640625 
Q 14.546875 15.625 18.59375 10.84375 
Q 22.65625 6.0625 28.421875 6.0625 
Q 34.28125 6.0625 38.453125 11.015625 
Q 42.625 15.96875 42.625 26.375 
Q 42.625 36.28125 38.546875 41.203125 
Q 34.46875 46.140625 28.8125 46.140625 
Q 23.1875 46.140625 18.859375 40.890625 
Q 14.546875 35.640625 14.546875 25.640625 
z
" id="ArialMT-112"/>
       <path d="M 6.59375 0 
L 6.59375 51.859375 
L 14.5 51.859375 
L 14.5 44.484375 
Q 20.21875 53.03125 31 53.03125 
Q 35.6875 53.03125 39.625 51.34375 
Q 43.5625 49.65625 45.515625 46.921875 
Q 47.46875 44.1875 48.25 40.4375 
Q 48.734375 37.984375 48.734375 31.890625 
L 48.734375 0 
L 39.9375 0 
L 39.9375 31.546875 
Q 39.9375 36.921875 38.90625 39.578125 
Q 37.890625 42.234375 35.28125 43.8125 
Q 32.671875 45.40625 29.15625 45.40625 
Q 23.53125 45.40625 19.453125 41.84375 
Q 15.375 38.28125 15.375 28.328125 
L 15.375 0 
z
" id="ArialMT-110"/>
       <path d="M 4.984375 -4.296875 
L 13.53125 -5.5625 
Q 14.0625 -9.515625 16.5 -11.328125 
Q 19.78125 -13.765625 25.4375 -13.765625 
Q 31.546875 -13.765625 34.859375 -11.328125 
Q 38.1875 -8.890625 39.359375 -4.5 
Q 40.046875 -1.8125 39.984375 6.78125 
Q 34.234375 0 25.640625 0 
Q 14.9375 0 9.078125 7.71875 
Q 3.21875 15.4375 3.21875 26.21875 
Q 3.21875 33.640625 5.90625 39.90625 
Q 8.59375 46.1875 13.6875 49.609375 
Q 18.796875 53.03125 25.6875 53.03125 
Q 34.859375 53.03125 40.828125 45.609375 
L 40.828125 51.859375 
L 48.921875 51.859375 
L 48.921875 7.03125 
Q 48.921875 -5.078125 46.453125 -10.125 
Q 44 -15.1875 38.640625 -18.109375 
Q 33.296875 -21.046875 25.484375 -21.046875 
Q 16.21875 -21.046875 10.5 -16.875 
Q 4.78125 -12.703125 4.984375 -4.296875 
z
M 12.25 26.859375 
Q 12.25 16.65625 16.296875 11.96875 
Q 20.359375 7.28125 26.46875 7.28125 
Q 32.515625 7.28125 36.609375 11.9375 
Q 40.71875 16.609375 40.71875 26.5625 
Q 40.71875 36.078125 36.5 40.90625 
Q 32.28125 45.75 26.3125 45.75 
Q 20.453125 45.75 16.34375 40.984375 
Q 12.25 36.234375 12.25 26.859375 
z
" id="ArialMT-103"/>
      </defs>
      <use xlink:href="#ArialMT-116"/>
      <use x="27.783203" xlink:href="#ArialMT-105"/>
      <use x="50" xlink:href="#ArialMT-109"/>
      <use x="133.300781" xlink:href="#ArialMT-101"/>
      <use x="188.916016" xlink:href="#ArialMT-32"/>
      <use x="216.699219" xlink:href="#ArialMT-102"/>
      <use x="244.482422" xlink:href="#ArialMT-114"/>
      <use x="277.783203" xlink:href="#ArialMT-111"/>
      <use x="333.398438" xlink:href="#ArialMT-109"/>
      <use x="416.699219" xlink:href="#ArialMT-32"/>
      <use x="444.482422" xlink:href="#ArialMT-112"/>
      <use x="500.097656" xlink:href="#ArialMT-105"/>
      <use x="522.314453" xlink:href="#ArialMT-110"/>
      <use x="577.929688" xlink:href="#ArialMT-103"/>
      <use x="633.544922" xlink:href="#ArialMT-105"/>
      <use x="655.761719" xlink:href="#ArialMT-110"/>
      <use x="711.376953" xlink:href="#ArialMT-103"/>
     </g>
    </g>
   </g>
   <g id="matplotlib.axis_2">
    <g id="ytick_1">
     <g id="line2d_3">
      <defs>
       <path d="M 0 0 
L 9 0 
" id="m467d3d1ed1" style="stroke:#262626;stroke-width:1.875;"/>
      </defs>
      <g>
       <use style="fill:#262626;stroke:#262626;stroke-width:1.875;" x="18" xlink:href="#m467d3d1ed1" y="91.2"/>
      </g>
     </g>
     <g id="text_4">
      <!-- 0 -->
      <g style="fill:#262626;" transform="translate(7.159562 95.924156)scale(0.132 -0.132)">
       <use xlink:href="#ArialMT-48"/>
      </g>
     </g>
    </g>
    <g id="ytick_2">
     <g id="line2d_4">
      <g>
       <use style="fill:#262626;stroke:#262626;stroke-width:1.875;" x="18" xlink:href="#m467d3d1ed1" y="54.24"/>
      </g>
     </g>
     <g id="text_5">
      <!-- 1 -->
      <g style="fill:#262626;" transform="translate(7.159562 58.964156)scale(0.132 -0.132)">
       <defs>
        <path d="M 37.25 0 
L 28.46875 0 
L 28.46875 56 
Q 25.296875 52.984375 20.140625 49.953125 
Q 14.984375 46.921875 10.890625 45.40625 
L 10.890625 53.90625 
Q 18.265625 57.375 23.78125 62.296875 
Q 29.296875 67.234375 31.59375 71.875 
L 37.25 71.875 
z
" id="ArialMT-49"/>
       </defs>
       <use xlink:href="#ArialMT-49"/>
      </g>
     </g>
    </g>
    <g id="ytick_3">
     <g id="line2d_5">
      <g>
       <use style="fill:#262626;stroke:#262626;stroke-width:1.875;" x="18" xlink:href="#m467d3d1ed1" y="17.28"/>
      </g>
     </g>
     <g id="text_6">
      <!-- 2 -->
      <g style="fill:#262626;" transform="translate(7.159562 22.004156)scale(0.132 -0.132)">
       <defs>
        <path d="M 50.34375 8.453125 
L 50.34375 0 
L 3.03125 0 
Q 2.9375 3.171875 4.046875 6.109375 
Q 5.859375 10.9375 9.828125 15.625 
Q 13.8125 20.3125 21.34375 26.46875 
Q 33.015625 36.03125 37.109375 41.625 
Q 41.21875 47.21875 41.21875 52.203125 
Q 41.21875 57.421875 37.46875 61 
Q 33.734375 64.59375 27.734375 64.59375 
Q 21.390625 64.59375 17.578125 60.78125 
Q 13.765625 56.984375 13.71875 50.25 
L 4.6875 51.171875 
Q 5.609375 61.28125 11.65625 66.578125 
Q 17.71875 71.875 27.9375 71.875 
Q 38.234375 71.875 44.234375 66.15625 
Q 50.25 60.453125 50.25 52 
Q 50.25 47.703125 48.484375 43.546875 
Q 46.734375 39.40625 42.65625 34.8125 
Q 38.578125 30.21875 29.109375 22.21875 
Q 21.1875 15.578125 18.9375 13.203125 
Q 16.703125 10.84375 15.234375 8.453125 
z
" id="ArialMT-50"/>
       </defs>
       <use xlink:href="#ArialMT-50"/>
      </g>
     </g>
    </g>
    <g id="text_7">
     <!-- 1e−3 -->
     <g style="fill:#262626;" transform="translate(18 14.28)scale(0.132 -0.132)">
      <defs>
       <path d="M 52.828125 31.203125 
L 5.5625 31.203125 
L 5.5625 39.40625 
L 52.828125 39.40625 
z
" id="ArialMT-8722"/>
       <path d="M 4.203125 18.890625 
L 12.984375 20.0625 
Q 14.5 12.59375 18.140625 9.296875 
Q 21.78125 6 27 6 
Q 33.203125 6 37.46875 10.296875 
Q 41.75 14.59375 41.75 20.953125 
Q 41.75 27 37.796875 30.921875 
Q 33.84375 34.859375 27.734375 34.859375 
Q 25.25 34.859375 21.53125 33.890625 
L 22.515625 41.609375 
Q 23.390625 41.5 23.921875 41.5 
Q 29.546875 41.5 34.03125 44.421875 
Q 38.53125 47.359375 38.53125 53.46875 
Q 38.53125 58.296875 35.25 61.46875 
Q 31.984375 64.65625 26.8125 64.65625 
Q 21.6875 64.65625 18.265625 61.421875 
Q 14.84375 58.203125 13.875 51.765625 
L 5.078125 53.328125 
Q 6.6875 62.15625 12.390625 67.015625 
Q 18.109375 71.875 26.609375 71.875 
Q 32.46875 71.875 37.390625 69.359375 
Q 42.328125 66.84375 44.9375 62.5 
Q 47.5625 58.15625 47.5625 53.265625 
Q 47.5625 48.640625 45.0625 44.828125 
Q 42.578125 41.015625 37.703125 38.765625 
Q 44.046875 37.3125 47.5625 32.6875 
Q 51.078125 28.078125 51.078125 21.140625 
Q 51.078125 11.765625 44.234375 5.25 
Q 37.40625 -1.265625 26.953125 -1.265625 
Q 17.53125 -1.265625 11.296875 4.34375 
Q 5.078125 9.96875 4.203125 18.890625 
z
" id="ArialMT-51"/>
      </defs>
      <use xlink:href="#ArialMT-49"/>
      <use x="55.615234" xlink:href="#ArialMT-101"/>
      <use x="111.230469" xlink:href="#ArialMT-8722"/>
      <use x="169.628906" xlink:href="#ArialMT-51"/>
     </g>
    </g>
   </g>
   <g id="PolyCollection_1">
    <defs>
     <path d="M 18 -73.650525 
L 18 -50.406497 
L 18.372 -52.700836 
L 18.744 -50.901039 
L 19.116 -50.557261 
L 19.488 -49.927517 
L 19.86 -50.6432 
L 20.232 -47.827522 
L 20.604 -48.705343 
L 20.976 -47.260305 
L 21.348 -48.375079 
L 21.72 -45.923575 
L 22.092 -45.091471 
L 22.464 -45.217017 
L 22.836 -45.145265 
L 23.208 -44.184386 
L 23.58 -45.399774 
L 23.952 -44.868006 
L 24.324 -45.596095 
L 24.696 -45.626294 
L 25.068 -46.900429 
L 25.44 -46.82092 
L 25.812 -48.31685 
L 26.184 -48.795033 
L 26.556 -50.984437 
L 26.928 -51.66254 
L 27.3 -53.2828 
L 27.672 -53.262574 
L 28.044 -55.592623 
L 28.416 -56.104005 
L 28.788 -57.514537 
L 29.16 -59.344877 
L 29.532 -60.74591 
L 29.904 -60.274567 
L 30.276 -61.511081 
L 30.648 -60.723384 
L 31.02 -62.629787 
L 31.392 -61.834118 
L 31.764 -62.207337 
L 32.136 -61.560204 
L 32.508 -61.432513 
L 32.88 -60.925592 
L 33.252 -59.340157 
L 33.624 -60.478773 
L 33.996 -58.065882 
L 34.368 -58.398706 
L 34.74 -56.930431 
L 35.112 -55.435362 
L 35.484 -54.922897 
L 35.856 -52.630497 
L 36.228 -52.709094 
L 36.6 -52.462524 
L 36.972 -49.987921 
L 37.344 -50.380882 
L 37.716 -49.630003 
L 38.088 -47.757628 
L 38.46 -47.693417 
L 38.832 -47.022064 
L 39.204 -47.218482 
L 39.576 -47.291265 
L 39.948 -46.459687 
L 40.32 -45.94784 
L 40.692 -47.235684 
L 41.064 -45.791766 
L 41.436 -45.904729 
L 41.808 -44.871297 
L 42.18 -44.768606 
L 42.552 -44.309379 
L 42.924 -44.001524 
L 43.296 -43.535873 
L 43.668 -42.863724 
L 44.04 -43.333423 
L 44.412 -42.649316 
L 44.784 -42.550272 
L 45.156 -42.840273 
L 45.528 -41.80091 
L 45.9 -42.778011 
L 46.272 -41.971077 
L 46.644 -40.627302 
L 47.016 -40.812581 
L 47.388 -42.30107 
L 47.76 -41.673828 
L 48.132 -43.148577 
L 48.504 -43.277694 
L 48.876 -42.392102 
L 49.248 -43.694268 
L 49.62 -43.50804 
L 49.992 -44.632209 
L 50.364 -43.533448 
L 50.736 -44.850267 
L 51.108 -46.227274 
L 51.48 -45.446177 
L 51.852 -45.817159 
L 52.224 -46.936809 
L 52.596 -47.042415 
L 52.968 -48.541609 
L 53.34 -50.077848 
L 53.712 -49.288612 
L 54.084 -50.587913 
L 54.456 -50.877535 
L 54.828 -51.492942 
L 55.2 -51.387389 
L 55.572 -54.056598 
L 55.944 -53.693155 
L 56.316 -55.278742 
L 56.688 -54.488029 
L 57.06 -56.467623 
L 57.432 -56.388017 
L 57.804 -57.085628 
L 58.176 -57.91773 
L 58.548 -57.570949 
L 58.92 -58.262774 
L 59.292 -58.256825 
L 59.664 -58.354028 
L 60.036 -58.937785 
L 60.408 -59.416523 
L 60.78 -58.737596 
L 61.152 -59.594403 
L 61.524 -58.957404 
L 61.896 -59.921341 
L 62.268 -58.794109 
L 62.64 -59.989043 
L 63.012 -61.837546 
L 63.384 -60.30509 
L 63.756 -61.213864 
L 64.128 -63.519449 
L 64.5 -61.903907 
L 64.872 -63.722931 
L 65.244 -62.636045 
L 65.616 -64.679155 
L 65.988 -65.795231 
L 66.36 -65.951971 
L 66.732 -67.500307 
L 67.104 -69.290493 
L 67.476 -69.220732 
L 67.848 -71.102639 
L 68.22 -71.513272 
L 68.592 -72.337617 
L 68.964 -74.586129 
L 69.336 -75.354778 
L 69.708 -77.301808 
L 70.08 -77.780893 
L 70.452 -78.704556 
L 70.824 -79.552549 
L 71.196 -80.231367 
L 71.568 -81.604634 
L 71.94 -82.063648 
L 72.312 -83.035224 
L 72.684 -84.626961 
L 73.056 -84.841012 
L 73.428 -84.629178 
L 73.8 -84.905717 
L 74.172 -83.955676 
L 74.544 -85.721876 
L 74.916 -85.811009 
L 75.288 -85.684052 
L 75.66 -86.541855 
L 76.032 -85.925667 
L 76.404 -85.625385 
L 76.776 -86.934156 
L 77.148 -86.805215 
L 77.52 -86.946931 
L 77.892 -85.789136 
L 78.264 -87.195037 
L 78.636 -88.229378 
L 79.008 -87.813394 
L 79.38 -87.619009 
L 79.752 -89.526112 
L 80.124 -89.767463 
L 80.496 -90.030323 
L 80.868 -90.078444 
L 81.24 -90.396713 
L 81.612 -91.104256 
L 81.984 -90.931904 
L 82.356 -90.013432 
L 82.728 -91.30515 
L 83.1 -91.107438 
L 83.472 -90.64672 
L 83.844 -91.061147 
L 84.216 -90.553594 
L 84.588 -92.240915 
L 84.96 -90.88762 
L 85.332 -91.277811 
L 85.704 -89.045994 
L 86.076 -88.207214 
L 86.448 -90.336022 
L 86.82 -88.845814 
L 87.192 -90.682796 
L 87.564 -89.024084 
L 87.936 -86.134974 
L 88.308 -88.459372 
L 88.68 -87.92143 
L 89.052 -85.793398 
L 89.424 -84.736932 
L 89.796 -84.193751 
L 90.168 -84.952106 
L 90.54 -84.70633 
L 90.912 -84.585963 
L 91.284 -83.714061 
L 91.656 -81.368124 
L 92.028 -80.552332 
L 92.4 -81.362338 
L 92.772 -80.508503 
L 93.144 -81.25782 
L 93.516 -80.080177 
L 93.888 -80.486849 
L 94.26 -82.270156 
L 94.632 -79.490044 
L 95.004 -79.629008 
L 95.376 -78.43525 
L 95.748 -79.654433 
L 96.12 -79.940967 
L 96.492 -78.925801 
L 96.864 -78.812894 
L 97.236 -76.668447 
L 97.608 -76.181815 
L 97.98 -77.02055 
L 98.352 -77.073789 
L 98.724 -74.513919 
L 99.096 -76.833577 
L 99.468 -78.026514 
L 99.84 -75.736879 
L 100.212 -75.009243 
L 100.584 -75.458659 
L 100.956 -75.066817 
L 101.328 -73.497818 
L 101.7 -71.818382 
L 102.072 -74.684993 
L 102.444 -72.859229 
L 102.816 -74.595204 
L 103.188 -74.792398 
L 103.56 -72.425146 
L 103.932 -72.348523 
L 104.304 -73.545677 
L 104.676 -72.1446 
L 105.048 -71.14894 
L 105.42 -72.742442 
L 105.792 -72.172618 
L 106.164 -71.688528 
L 106.536 -72.80032 
L 106.908 -71.094907 
L 107.28 -71.368074 
L 107.652 -72.359942 
L 108.024 -71.36416 
L 108.396 -72.782075 
L 108.768 -70.250867 
L 109.14 -69.040746 
L 109.512 -71.31246 
L 109.884 -71.446498 
L 110.256 -72.25522 
L 110.628 -69.497419 
L 111 -70.223935 
L 111.372 -68.079176 
L 111.744 -70.846598 
L 112.116 -67.945418 
L 112.488 -69.027001 
L 112.86 -69.605001 
L 113.232 -70.965206 
L 113.604 -70.75005 
L 113.976 -70.468691 
L 114.348 -70.125116 
L 114.72 -70.78429 
L 115.092 -71.537621 
L 115.464 -70.752858 
L 115.836 -70.964965 
L 116.208 -72.628185 
L 116.58 -73.558056 
L 116.952 -75.195983 
L 117.324 -75.537422 
L 117.696 -75.013447 
L 118.068 -74.418873 
L 118.44 -77.240868 
L 118.812 -73.52096 
L 119.184 -75.556798 
L 119.556 -76.494384 
L 119.928 -75.797683 
L 120.3 -74.908742 
L 120.672 -78.445338 
L 121.044 -75.374191 
L 121.416 -76.7998 
L 121.788 -77.475524 
L 122.16 -76.946233 
L 122.532 -78.205164 
L 122.904 -77.864403 
L 123.276 -77.282377 
L 123.648 -76.762857 
L 124.02 -77.019681 
L 124.392 -76.204679 
L 124.764 -76.016243 
L 125.136 -76.242321 
L 125.508 -75.750684 
L 125.88 -73.591694 
L 126.252 -73.297145 
L 126.624 -72.54463 
L 126.996 -70.716319 
L 127.368 -71.45091 
L 127.74 -70.720817 
L 128.112 -70.146773 
L 128.484 -70.239166 
L 128.856 -69.280434 
L 129.228 -67.214892 
L 129.228 -84.529809 
L 129.228 -84.529809 
L 128.856 -86.279418 
L 128.484 -88.011693 
L 128.112 -87.617203 
L 127.74 -89.699262 
L 127.368 -89.570193 
L 126.996 -90.715308 
L 126.624 -92.121867 
L 126.252 -93.120234 
L 125.88 -93.703034 
L 125.508 -96.58904 
L 125.136 -98.407121 
L 124.764 -98.81597 
L 124.392 -100.275365 
L 124.02 -102.228333 
L 123.648 -102.173881 
L 123.276 -102.251472 
L 122.904 -105.123998 
L 122.532 -105.78416 
L 122.16 -103.726449 
L 121.788 -105.9119 
L 121.416 -105.777914 
L 121.044 -105.451862 
L 120.672 -106.105274 
L 120.3 -104.297892 
L 119.928 -105.191891 
L 119.556 -105.8543 
L 119.184 -104.257649 
L 118.812 -103.761904 
L 118.44 -103.678289 
L 118.068 -103.752938 
L 117.696 -102.832966 
L 117.324 -103.347961 
L 116.952 -103.565105 
L 116.58 -102.531751 
L 116.208 -101.600676 
L 115.836 -100.285582 
L 115.464 -99.715588 
L 115.092 -100.890006 
L 114.72 -98.552865 
L 114.348 -97.563421 
L 113.976 -98.98086 
L 113.604 -98.410275 
L 113.232 -97.141651 
L 112.86 -97.992503 
L 112.488 -96.792174 
L 112.116 -95.708921 
L 111.744 -96.617565 
L 111.372 -96.771379 
L 111 -96.356756 
L 110.628 -96.784596 
L 110.256 -97.635609 
L 109.884 -97.062842 
L 109.512 -96.070848 
L 109.14 -97.080888 
L 108.768 -97.688821 
L 108.396 -99.946571 
L 108.024 -98.286835 
L 107.652 -99.475342 
L 107.28 -98.231325 
L 106.908 -99.299848 
L 106.536 -99.401839 
L 106.164 -99.47281 
L 105.792 -99.295894 
L 105.42 -100.451306 
L 105.048 -99.095 
L 104.676 -101.560793 
L 104.304 -102.187717 
L 103.932 -101.068205 
L 103.56 -101.438925 
L 103.188 -104.322661 
L 102.816 -102.675733 
L 102.444 -102.486783 
L 102.072 -104.484653 
L 101.7 -103.380016 
L 101.328 -103.005292 
L 100.956 -104.063094 
L 100.584 -105.104142 
L 100.212 -103.626541 
L 99.84 -105.581079 
L 99.468 -106.232731 
L 99.096 -104.786459 
L 98.724 -104.014721 
L 98.352 -105.070574 
L 97.98 -105.876094 
L 97.608 -104.488333 
L 97.236 -104.156258 
L 96.864 -105.670578 
L 96.492 -107.61705 
L 96.12 -107.900308 
L 95.748 -106.546158 
L 95.376 -105.836969 
L 95.004 -107.313209 
L 94.632 -105.482532 
L 94.26 -109.547718 
L 93.888 -107.026567 
L 93.516 -107.654071 
L 93.144 -109.270787 
L 92.772 -107.485084 
L 92.4 -108.841799 
L 92.028 -107.554649 
L 91.656 -110.28451 
L 91.284 -111.438907 
L 90.912 -111.380199 
L 90.54 -111.330538 
L 90.168 -113.502757 
L 89.796 -111.23206 
L 89.424 -113.100431 
L 89.052 -111.950862 
L 88.68 -115.555349 
L 88.308 -117.300009 
L 87.936 -115.235747 
L 87.564 -115.454458 
L 87.192 -118.187739 
L 86.82 -114.871046 
L 86.448 -116.903479 
L 86.076 -115.065767 
L 85.704 -114.72961 
L 85.332 -118.165415 
L 84.96 -117.092014 
L 84.588 -117.0798 
L 84.216 -113.875974 
L 83.844 -115.668039 
L 83.472 -116.188387 
L 83.1 -114.203079 
L 82.728 -114.031246 
L 82.356 -113.878053 
L 81.984 -114.472536 
L 81.612 -114.071929 
L 81.24 -114.736306 
L 80.868 -113.328742 
L 80.496 -112.104019 
L 80.124 -112.183445 
L 79.752 -111.866025 
L 79.38 -110.231598 
L 79.008 -110.652279 
L 78.636 -110.1911 
L 78.264 -109.420848 
L 77.892 -108.366386 
L 77.52 -109.541507 
L 77.148 -108.097041 
L 76.776 -108.713908 
L 76.404 -107.250911 
L 76.032 -107.285469 
L 75.66 -108.797794 
L 75.288 -106.76537 
L 74.916 -108.026311 
L 74.544 -106.078943 
L 74.172 -105.647607 
L 73.8 -106.778099 
L 73.428 -104.913435 
L 73.056 -105.263865 
L 72.684 -106.1335 
L 72.312 -104.105386 
L 71.94 -102.717409 
L 71.568 -103.264759 
L 71.196 -101.606849 
L 70.824 -102.169469 
L 70.452 -100.072688 
L 70.08 -99.715006 
L 69.708 -98.042213 
L 69.336 -97.165344 
L 68.964 -97.09087 
L 68.592 -93.93648 
L 68.22 -94.023617 
L 67.848 -93.494866 
L 67.476 -92.713648 
L 67.104 -92.656528 
L 66.732 -91.227896 
L 66.36 -88.322934 
L 65.988 -88.315077 
L 65.616 -87.630652 
L 65.244 -85.936638 
L 64.872 -86.827041 
L 64.5 -85.820282 
L 64.128 -85.60163 
L 63.756 -83.809506 
L 63.384 -82.970286 
L 63.012 -83.309716 
L 62.64 -81.971225 
L 62.268 -81.214716 
L 61.896 -81.326616 
L 61.524 -80.76307 
L 61.152 -80.802326 
L 60.78 -78.82219 
L 60.408 -79.922499 
L 60.036 -79.381159 
L 59.664 -78.642206 
L 59.292 -78.203321 
L 58.92 -78.486574 
L 58.548 -77.530444 
L 58.176 -76.5243 
L 57.804 -76.944902 
L 57.432 -75.814635 
L 57.06 -75.936243 
L 56.688 -74.018703 
L 56.316 -75.620793 
L 55.944 -74.222859 
L 55.572 -74.482878 
L 55.2 -72.255268 
L 54.828 -71.933646 
L 54.456 -72.472502 
L 54.084 -70.169868 
L 53.712 -70.610522 
L 53.34 -71.772069 
L 52.968 -69.65943 
L 52.596 -69.439231 
L 52.224 -68.108467 
L 51.852 -66.793257 
L 51.48 -67.149122 
L 51.108 -66.658122 
L 50.736 -65.069311 
L 50.364 -64.681325 
L 49.992 -65.721808 
L 49.62 -63.53131 
L 49.248 -62.644329 
L 48.876 -61.611884 
L 48.504 -61.241617 
L 48.132 -61.200119 
L 47.76 -59.18203 
L 47.388 -58.711641 
L 47.016 -57.715432 
L 46.644 -57.160961 
L 46.272 -58.026372 
L 45.9 -57.58487 
L 45.528 -56.88197 
L 45.156 -57.07221 
L 44.784 -56.685607 
L 44.412 -56.808406 
L 44.04 -56.860869 
L 43.668 -57.429227 
L 43.296 -56.856077 
L 42.924 -57.881428 
L 42.552 -58.504868 
L 42.18 -58.683344 
L 41.808 -59.122507 
L 41.436 -59.609894 
L 41.064 -60.34916 
L 40.692 -62.076346 
L 40.32 -60.03665 
L 39.948 -61.322208 
L 39.576 -62.236099 
L 39.204 -61.573706 
L 38.832 -62.054693 
L 38.46 -62.374415 
L 38.088 -63.290741 
L 37.716 -64.900065 
L 37.344 -64.769719 
L 36.972 -65.442804 
L 36.6 -66.787763 
L 36.228 -67.320315 
L 35.856 -67.423182 
L 35.484 -69.436788 
L 35.112 -70.695623 
L 34.74 -72.35907 
L 34.368 -73.897112 
L 33.996 -73.944011 
L 33.624 -75.573621 
L 33.252 -75.980872 
L 32.88 -76.633359 
L 32.508 -78.442265 
L 32.136 -78.431218 
L 31.764 -79.413354 
L 31.392 -78.585745 
L 31.02 -80.020349 
L 30.648 -77.391401 
L 30.276 -78.898245 
L 29.904 -77.706355 
L 29.532 -78.604855 
L 29.16 -76.348677 
L 28.788 -74.380264 
L 28.416 -72.352479 
L 28.044 -70.984074 
L 27.672 -68.289546 
L 27.3 -67.446543 
L 26.928 -65.364408 
L 26.556 -65.369037 
L 26.184 -63.120606 
L 25.812 -62.44998 
L 25.44 -61.775803 
L 25.068 -62.418692 
L 24.696 -60.153495 
L 24.324 -60.493025 
L 23.952 -61.385649 
L 23.58 -61.417875 
L 23.208 -61.24361 
L 22.836 -62.248978 
L 22.464 -62.628858 
L 22.092 -64.801457 
L 21.72 -64.647093 
L 21.348 -67.426741 
L 20.976 -68.102194 
L 20.604 -68.296617 
L 20.232 -69.438474 
L 19.86 -71.29899 
L 19.488 -72.350799 
L 19.116 -71.554198 
L 18.744 -72.196983 
L 18.372 -74.678773 
L 18 -73.650525 
z
" id="m2d62679a23" style="stroke:#8b0000;stroke-opacity:0.2;stroke-width:1.5;"/>
    </defs>
    <g clip-path="url(#pb3293c30c2)">
     <use style="fill:#8b0000;fill-opacity:0.2;stroke:#8b0000;stroke-opacity:0.2;stroke-width:1.5;" x="0" xlink:href="#m2d62679a23" y="144"/>
    </g>
   </g>
   <g id="PolyCollection_2">
    <defs>
     <path d="M 18 -65.133231 
L 18 -48.22757 
L 18.372 -46.727065 
L 18.744 -45.99648 
L 19.116 -45.639104 
L 19.488 -44.518286 
L 19.86 -43.104525 
L 20.232 -42.916051 
L 20.604 -43.624376 
L 20.976 -41.665078 
L 21.348 -41.204152 
L 21.72 -38.518443 
L 22.092 -39.948685 
L 22.464 -36.206784 
L 22.836 -37.35176 
L 23.208 -35.046052 
L 23.58 -33.999789 
L 23.952 -34.128878 
L 24.324 -31.914281 
L 24.696 -31.372255 
L 25.068 -29.548197 
L 25.44 -29.555611 
L 25.812 -28.305889 
L 26.184 -27.078281 
L 26.556 -28.252723 
L 26.928 -27.875944 
L 27.3 -24.919634 
L 27.672 -27.875026 
L 28.044 -26.687639 
L 28.416 -26.735625 
L 28.788 -26.608005 
L 29.16 -26.698065 
L 29.532 -26.423547 
L 29.904 -25.82608 
L 30.276 -25.421426 
L 30.648 -24.770102 
L 31.02 -24.922502 
L 31.392 -24.708364 
L 31.764 -24.408989 
L 32.136 -23.812899 
L 32.508 -23.838874 
L 32.88 -24.025793 
L 33.252 -24.02394 
L 33.624 -22.815786 
L 33.996 -24.809269 
L 34.368 -24.074735 
L 34.74 -23.9385 
L 35.112 -24.644017 
L 35.484 -24.235205 
L 35.856 -24.685655 
L 36.228 -23.685424 
L 36.6 -24.831424 
L 36.972 -24.845197 
L 37.344 -24.385636 
L 37.716 -23.704283 
L 38.088 -23.971289 
L 38.46 -24.983097 
L 38.832 -24.614038 
L 39.204 -24.551665 
L 39.576 -24.269312 
L 39.948 -25.483255 
L 40.32 -25.20069 
L 40.692 -24.506657 
L 41.064 -24.157847 
L 41.436 -24.822407 
L 41.808 -25.674845 
L 42.18 -24.886173 
L 42.552 -26.158825 
L 42.924 -25.97556 
L 43.296 -29.28996 
L 43.668 -27.717535 
L 44.04 -28.410646 
L 44.412 -30.411257 
L 44.784 -31.285095 
L 45.156 -31.032958 
L 45.528 -33.079049 
L 45.9 -33.33327 
L 46.272 -34.841878 
L 46.644 -35.090311 
L 47.016 -36.607921 
L 47.388 -37.55251 
L 47.76 -38.471007 
L 48.132 -38.002616 
L 48.504 -38.297603 
L 48.876 -38.352895 
L 49.248 -38.01153 
L 49.62 -39.303384 
L 49.992 -39.151543 
L 50.364 -39.371286 
L 50.736 -39.520622 
L 51.108 -37.982743 
L 51.48 -38.686585 
L 51.852 -39.844416 
L 52.224 -38.273849 
L 52.596 -37.235473 
L 52.968 -36.521268 
L 53.34 -35.393282 
L 53.712 -37.279361 
L 54.084 -37.892663 
L 54.456 -37.3151 
L 54.828 -36.778338 
L 55.2 -37.974988 
L 55.572 -37.539118 
L 55.944 -39.578092 
L 56.316 -39.20303 
L 56.688 -38.680785 
L 57.06 -38.995275 
L 57.432 -40.671565 
L 57.804 -39.449013 
L 58.176 -41.806757 
L 58.548 -41.169952 
L 58.92 -41.005863 
L 59.292 -42.493465 
L 59.664 -42.586366 
L 60.036 -42.442868 
L 60.408 -41.553304 
L 60.78 -43.442289 
L 61.152 -43.502316 
L 61.524 -41.599109 
L 61.896 -42.376143 
L 62.268 -42.865676 
L 62.64 -42.855482 
L 63.012 -41.498752 
L 63.384 -40.952482 
L 63.756 -40.849683 
L 64.128 -40.963497 
L 64.5 -40.109515 
L 64.872 -41.7219 
L 65.244 -40.350928 
L 65.616 -40.558695 
L 65.988 -41.643238 
L 66.36 -40.197271 
L 66.732 -42.483107 
L 67.104 -41.824783 
L 67.476 -41.134757 
L 67.848 -40.687578 
L 68.22 -41.994242 
L 68.592 -40.812597 
L 68.964 -43.042639 
L 69.336 -42.081523 
L 69.708 -42.865076 
L 70.08 -42.268273 
L 70.452 -42.217668 
L 70.824 -42.335985 
L 71.196 -42.813501 
L 71.568 -43.673249 
L 71.94 -42.983389 
L 72.312 -42.765128 
L 72.684 -43.688168 
L 73.056 -42.963629 
L 73.428 -42.944357 
L 73.8 -43.621091 
L 74.172 -43.729485 
L 74.544 -43.496898 
L 74.916 -42.924606 
L 75.288 -44.092699 
L 75.66 -45.128091 
L 76.032 -45.070786 
L 76.404 -44.908984 
L 76.776 -44.957934 
L 77.148 -45.894319 
L 77.52 -45.262837 
L 77.892 -45.553889 
L 78.264 -45.980826 
L 78.636 -46.864943 
L 79.008 -46.328156 
L 79.38 -47.283567 
L 79.752 -46.899434 
L 80.124 -46.824564 
L 80.496 -47.794312 
L 80.868 -48.356347 
L 81.24 -48.719047 
L 81.612 -48.842911 
L 81.984 -49.024472 
L 82.356 -49.694065 
L 82.728 -49.767467 
L 83.1 -49.390775 
L 83.472 -50.564265 
L 83.844 -51.247538 
L 84.216 -49.924359 
L 84.588 -50.182072 
L 84.96 -51.174612 
L 85.332 -50.384688 
L 85.704 -51.399271 
L 86.076 -52.304825 
L 86.448 -52.133352 
L 86.82 -52.68733 
L 87.192 -52.891112 
L 87.564 -51.904535 
L 87.936 -53.072526 
L 88.308 -52.396418 
L 88.68 -52.589799 
L 89.052 -52.601875 
L 89.424 -52.549026 
L 89.796 -52.481582 
L 90.168 -53.296025 
L 90.54 -51.545358 
L 90.912 -52.14035 
L 91.284 -52.288036 
L 91.656 -52.533943 
L 92.028 -52.873307 
L 92.4 -52.076033 
L 92.772 -51.764075 
L 93.144 -51.647456 
L 93.516 -51.772815 
L 93.888 -50.183344 
L 94.26 -50.914438 
L 94.632 -51.038329 
L 95.004 -50.21459 
L 95.376 -49.445294 
L 95.748 -50.413341 
L 96.12 -49.957108 
L 96.492 -48.648387 
L 96.864 -48.934388 
L 97.236 -48.479252 
L 97.608 -47.973103 
L 97.98 -49.56144 
L 98.352 -48.603928 
L 98.724 -47.680016 
L 99.096 -48.056575 
L 99.468 -48.304413 
L 99.84 -46.66831 
L 100.212 -45.755761 
L 100.584 -46.324978 
L 100.956 -45.24455 
L 101.328 -44.771991 
L 101.7 -45.436314 
L 102.072 -44.674846 
L 102.444 -43.95222 
L 102.816 -44.04963 
L 103.188 -42.590645 
L 103.56 -43.632575 
L 103.932 -41.504699 
L 104.304 -40.351994 
L 104.676 -39.754383 
L 105.048 -41.517625 
L 105.42 -40.239043 
L 105.792 -40.516569 
L 106.164 -41.281396 
L 106.536 -40.689681 
L 106.908 -40.90112 
L 107.28 -40.863949 
L 107.652 -40.502976 
L 108.024 -40.1031 
L 108.396 -39.577594 
L 108.768 -39.581507 
L 109.14 -40.839005 
L 109.512 -40.118567 
L 109.884 -41.315673 
L 110.256 -41.279189 
L 110.628 -40.986148 
L 111 -42.750021 
L 111.372 -42.038351 
L 111.744 -42.109062 
L 112.116 -43.028853 
L 112.488 -41.481219 
L 112.86 -42.972429 
L 113.232 -42.75331 
L 113.604 -43.627391 
L 113.976 -43.19632 
L 114.348 -44.860676 
L 114.72 -42.99096 
L 115.092 -44.101099 
L 115.464 -44.199936 
L 115.836 -44.189518 
L 116.208 -43.581108 
L 116.58 -42.878626 
L 116.952 -43.972689 
L 117.324 -44.918421 
L 117.696 -42.98071 
L 118.068 -41.845649 
L 118.44 -42.792417 
L 118.812 -42.799905 
L 119.184 -44.048003 
L 119.556 -43.093688 
L 119.928 -42.506323 
L 120.3 -42.119364 
L 120.672 -41.903188 
L 121.044 -42.426499 
L 121.416 -42.017789 
L 121.788 -40.722231 
L 122.16 -41.092047 
L 122.532 -41.230558 
L 122.904 -40.86978 
L 123.276 -40.211351 
L 123.648 -40.637679 
L 124.02 -39.670984 
L 124.392 -39.108255 
L 124.764 -38.800165 
L 125.136 -37.959811 
L 125.508 -37.665511 
L 125.88 -37.422623 
L 126.252 -37.3027 
L 126.624 -37.476827 
L 126.996 -37.260489 
L 127.368 -37.06657 
L 127.74 -36.534171 
L 128.112 -36.451914 
L 128.484 -37.899546 
L 128.856 -37.027131 
L 129.228 -35.535104 
L 129.228 -55.338197 
L 129.228 -55.338197 
L 128.856 -55.941632 
L 128.484 -57.529249 
L 128.112 -56.278678 
L 127.74 -56.545339 
L 127.368 -57.085459 
L 126.996 -57.710278 
L 126.624 -57.888198 
L 126.252 -57.487165 
L 125.88 -58.678147 
L 125.508 -57.467466 
L 125.136 -57.856506 
L 124.764 -59.813987 
L 124.392 -60.388989 
L 124.02 -61.446626 
L 123.648 -61.006752 
L 123.276 -61.152107 
L 122.904 -60.924962 
L 122.532 -61.684616 
L 122.16 -62.334018 
L 121.788 -61.109319 
L 121.416 -62.205231 
L 121.044 -62.186886 
L 120.672 -61.520065 
L 120.3 -61.100348 
L 119.928 -61.889137 
L 119.556 -63.787673 
L 119.184 -63.904806 
L 118.812 -62.734044 
L 118.44 -61.774761 
L 118.068 -61.819634 
L 117.696 -62.346512 
L 117.324 -63.661581 
L 116.952 -62.835355 
L 116.58 -61.994631 
L 116.208 -63.314441 
L 115.836 -62.270629 
L 115.464 -61.944716 
L 115.092 -61.537846 
L 114.72 -61.805567 
L 114.348 -62.815738 
L 113.976 -61.145589 
L 113.604 -60.749862 
L 113.232 -59.938717 
L 112.86 -59.915007 
L 112.488 -59.998511 
L 112.116 -59.275923 
L 111.744 -58.298081 
L 111.372 -60.049246 
L 111 -60.510761 
L 110.628 -59.533877 
L 110.256 -59.010962 
L 109.884 -60.073147 
L 109.512 -59.203863 
L 109.14 -59.654289 
L 108.768 -58.509071 
L 108.396 -59.201937 
L 108.024 -59.795987 
L 107.652 -59.899815 
L 107.28 -60.843261 
L 106.908 -61.240017 
L 106.536 -60.563787 
L 106.164 -61.575147 
L 105.792 -60.312376 
L 105.42 -61.78029 
L 105.048 -61.962507 
L 104.676 -60.845739 
L 104.304 -63.034097 
L 103.932 -63.440616 
L 103.56 -65.348239 
L 103.188 -64.936801 
L 102.816 -66.257455 
L 102.444 -66.481299 
L 102.072 -67.079341 
L 101.7 -67.739194 
L 101.328 -68.751626 
L 100.956 -68.359701 
L 100.584 -68.498294 
L 100.212 -69.592703 
L 99.84 -70.866041 
L 99.468 -71.803355 
L 99.096 -72.30675 
L 98.724 -71.642708 
L 98.352 -73.303355 
L 97.98 -73.44389 
L 97.608 -71.364318 
L 97.236 -73.454031 
L 96.864 -73.323443 
L 96.492 -72.603036 
L 96.12 -74.71078 
L 95.748 -75.031341 
L 95.376 -72.564604 
L 95.004 -74.634089 
L 94.632 -75.080768 
L 94.26 -73.453062 
L 93.888 -74.949589 
L 93.516 -75.865011 
L 93.144 -73.269 
L 92.772 -73.196057 
L 92.4 -72.663913 
L 92.028 -74.093447 
L 91.656 -72.169416 
L 91.284 -70.93684 
L 90.912 -70.320717 
L 90.54 -70.449651 
L 90.168 -70.959171 
L 89.796 -70.058673 
L 89.424 -69.784161 
L 89.052 -69.56257 
L 88.68 -68.74105 
L 88.308 -69.078087 
L 87.936 -68.457957 
L 87.564 -67.702779 
L 87.192 -67.174162 
L 86.82 -67.281645 
L 86.448 -66.678375 
L 86.076 -65.672343 
L 85.704 -65.367094 
L 85.332 -64.958235 
L 84.96 -65.009733 
L 84.588 -64.882317 
L 84.216 -64.93439 
L 83.844 -65.799633 
L 83.472 -65.513553 
L 83.1 -64.013292 
L 82.728 -64.113435 
L 82.356 -65.287139 
L 81.984 -63.868477 
L 81.612 -63.685844 
L 81.24 -64.233758 
L 80.868 -64.818235 
L 80.496 -63.033494 
L 80.124 -62.341391 
L 79.752 -63.213787 
L 79.38 -63.713141 
L 79.008 -63.027747 
L 78.636 -63.355815 
L 78.264 -63.479315 
L 77.892 -64.87553 
L 77.52 -63.811279 
L 77.148 -63.501907 
L 76.776 -64.973256 
L 76.404 -64.066626 
L 76.032 -64.541698 
L 75.66 -65.199706 
L 75.288 -64.773448 
L 74.916 -63.725675 
L 74.544 -64.471643 
L 74.172 -65.534283 
L 73.8 -65.242855 
L 73.428 -64.916027 
L 73.056 -64.745667 
L 72.684 -65.787334 
L 72.312 -65.560503 
L 71.94 -65.398186 
L 71.568 -66.919325 
L 71.196 -66.823034 
L 70.824 -65.395563 
L 70.452 -64.731381 
L 70.08 -66.770044 
L 69.708 -65.656398 
L 69.336 -66.466229 
L 68.964 -67.871202 
L 68.592 -64.676862 
L 68.22 -66.191774 
L 67.848 -64.873845 
L 67.476 -65.601452 
L 67.104 -65.359437 
L 66.732 -65.547823 
L 66.36 -64.722991 
L 65.988 -64.556813 
L 65.616 -64.314054 
L 65.244 -63.822935 
L 64.872 -64.945957 
L 64.5 -62.877554 
L 64.128 -64.361206 
L 63.756 -62.415887 
L 63.384 -63.573158 
L 63.012 -64.149787 
L 62.64 -64.609584 
L 62.268 -65.138347 
L 61.896 -64.799836 
L 61.524 -64.045435 
L 61.152 -65.153601 
L 60.78 -64.249651 
L 60.408 -64.141933 
L 60.036 -62.818786 
L 59.664 -62.582717 
L 59.292 -64.172744 
L 58.92 -62.848444 
L 58.548 -61.678989 
L 58.176 -61.624543 
L 57.804 -60.489333 
L 57.432 -61.695058 
L 57.06 -59.844366 
L 56.688 -59.103391 
L 56.316 -60.015445 
L 55.944 -59.971058 
L 55.572 -59.034552 
L 55.2 -58.78207 
L 54.828 -57.877426 
L 54.456 -57.444496 
L 54.084 -59.458507 
L 53.712 -56.950173 
L 53.34 -57.33526 
L 52.968 -57.043666 
L 52.596 -58.244272 
L 52.224 -58.474553 
L 51.852 -59.566397 
L 51.48 -59.516614 
L 51.108 -59.308986 
L 50.736 -60.311447 
L 50.364 -59.825916 
L 49.992 -60.341027 
L 49.62 -61.537506 
L 49.248 -59.985114 
L 48.876 -59.444293 
L 48.504 -59.092402 
L 48.132 -59.874025 
L 47.76 -59.406323 
L 47.388 -59.134083 
L 47.016 -58.106943 
L 46.644 -56.711783 
L 46.272 -56.342357 
L 45.9 -54.250722 
L 45.528 -54.043121 
L 45.156 -52.387801 
L 44.784 -51.575101 
L 44.412 -50.945672 
L 44.04 -49.305113 
L 43.668 -49.465283 
L 43.296 -48.407005 
L 42.924 -45.97037 
L 42.552 -46.276265 
L 42.18 -45.374085 
L 41.808 -44.897379 
L 41.436 -43.449809 
L 41.064 -44.30385 
L 40.692 -42.842468 
L 40.32 -42.770478 
L 39.948 -43.179604 
L 39.576 -42.231033 
L 39.204 -42.61764 
L 38.832 -41.712232 
L 38.46 -41.681171 
L 38.088 -41.542659 
L 37.716 -42.343765 
L 37.344 -43.122883 
L 36.972 -42.963416 
L 36.6 -42.906003 
L 36.228 -42.488133 
L 35.856 -43.617303 
L 35.484 -42.752173 
L 35.112 -42.534864 
L 34.74 -43.257843 
L 34.368 -42.963587 
L 33.996 -43.146599 
L 33.624 -42.309353 
L 33.252 -42.797016 
L 32.88 -42.16756 
L 32.508 -41.613546 
L 32.136 -42.439292 
L 31.764 -41.493143 
L 31.392 -41.946941 
L 31.02 -42.761733 
L 30.648 -43.535288 
L 30.276 -44.274848 
L 29.904 -43.607926 
L 29.532 -44.132371 
L 29.16 -44.608424 
L 28.788 -45.040109 
L 28.416 -46.521994 
L 28.044 -46.217177 
L 27.672 -48.19446 
L 27.3 -45.335083 
L 26.928 -48.708427 
L 26.556 -47.517366 
L 26.184 -47.844164 
L 25.812 -47.91317 
L 25.44 -48.141793 
L 25.068 -49.825042 
L 24.696 -50.395805 
L 24.324 -50.515215 
L 23.952 -52.912624 
L 23.58 -53.023106 
L 23.208 -54.876819 
L 22.836 -55.359505 
L 22.464 -55.146211 
L 22.092 -58.110177 
L 21.72 -56.527774 
L 21.348 -58.249899 
L 20.976 -58.823999 
L 20.604 -59.167918 
L 20.232 -58.787684 
L 19.86 -59.715931 
L 19.488 -61.555146 
L 19.116 -61.670452 
L 18.744 -62.121411 
L 18.372 -63.485761 
L 18 -65.133231 
z
" id="m623b6c11dc" style="stroke:#808080;stroke-opacity:0.2;stroke-width:1.5;"/>
    </defs>
    <g clip-path="url(#pb3293c30c2)">
     <use style="fill:#808080;fill-opacity:0.2;stroke:#808080;stroke-opacity:0.2;stroke-width:1.5;" x="0" xlink:href="#m623b6c11dc" y="144"/>
    </g>
   </g>
   <g id="PolyCollection_3">
    <defs>
     <path d="M 36.6 -52.8 
L 36.6 -45.408 
L 55.2 -45.408 
L 55.2 -52.8 
L 55.2 -52.8 
L 36.6 -52.8 
z
" id="m875d8c08f0" style="stroke:#000000;stroke-opacity:0.5;stroke-width:1.5;"/>
    </defs>
    <g clip-path="url(#pb3293c30c2)">
     <use style="fill-opacity:0.5;stroke:#000000;stroke-opacity:0.5;stroke-width:1.5;" x="0" xlink:href="#m875d8c08f0" y="144"/>
    </g>
   </g>
   <g id="line2d_6">
    <path clip-path="url(#pb3293c30c2)" d="M 18 80.626538 
L 19.116 82.696557 
L 22.836 90.319254 
L 23.58 90.997993 
L 23.952 91.105459 
L 24.324 91.050978 
L 24.696 90.826508 
L 25.068 90.415688 
L 25.812 88.974464 
L 26.556 86.729231 
L 27.672 82.351745 
L 28.788 77.888992 
L 29.532 75.584872 
L 30.276 74.165299 
L 30.648 73.809714 
L 31.02 73.681131 
L 31.392 73.75992 
L 31.764 74.018864 
L 32.508 74.959812 
L 33.252 76.319092 
L 34.368 78.948696 
L 37.344 86.754067 
L 38.088 88.078082 
L 38.832 89.047694 
L 39.948 90.095592 
L 41.436 91.480719 
L 43.668 93.748742 
L 44.412 94.251638 
L 45.156 94.502666 
L 45.9 94.459939 
L 46.644 94.1135 
L 47.388 93.480903 
L 48.504 92.099424 
L 50.364 89.229078 
L 54.828 82.009178 
L 58.176 76.160975 
L 59.292 74.826735 
L 60.408 73.996512 
L 62.268 72.872529 
L 63.012 72.158081 
L 63.756 71.182056 
L 64.872 69.210634 
L 65.988 66.740269 
L 68.22 61.081983 
L 71.196 53.503865 
L 72.312 51.314515 
L 73.056 50.23502 
L 73.8 49.447108 
L 74.916 48.616714 
L 76.404 47.554602 
L 77.892 46.13391 
L 80.496 43.559436 
L 82.356 42.005083 
L 83.472 41.391117 
L 84.216 41.216861 
L 84.96 41.249739 
L 85.704 41.482675 
L 86.448 41.90257 
L 87.564 42.850453 
L 89.052 44.562321 
L 93.144 49.623451 
L 94.26 50.709681 
L 95.748 51.801157 
L 99.468 54.241123 
L 106.908 59.760033 
L 108.024 60.298938 
L 109.14 60.612039 
L 110.256 60.696006 
L 111.744 60.525845 
L 112.86 60.165539 
L 113.976 59.496093 
L 115.092 58.498552 
L 117.324 56.364661 
L 119.928 54.369679 
L 121.044 53.795667 
L 121.788 53.71864 
L 122.532 54.002486 
L 123.276 54.700114 
L 124.02 55.803218 
L 125.136 58.039258 
L 128.112 64.534248 
L 129.228 66.336151 
L 129.228 66.336151 
" style="fill:none;stroke:#8b0000;stroke-linecap:round;stroke-width:2.25;"/>
   </g>
   <g id="line2d_7">
    <path clip-path="url(#pb3293c30c2)" d="M 18 89.357642 
L 18.744 90.393542 
L 20.604 93.200062 
L 21.348 94.204353 
L 22.092 95.746778 
L 23.952 100.586886 
L 25.44 105.190096 
L 26.184 106.480801 
L 26.928 107.164939 
L 28.044 107.753871 
L 28.788 108.591511 
L 31.02 111.54522 
L 31.764 111.901666 
L 32.508 111.825169 
L 35.484 111.022026 
L 36.972 111.072354 
L 39.576 111.330594 
L 40.32 111.156406 
L 41.064 110.712321 
L 41.808 109.987129 
L 42.552 108.924414 
L 43.296 107.481386 
L 44.412 104.722543 
L 47.388 96.494878 
L 48.132 95.223338 
L 48.876 94.498292 
L 49.62 94.25968 
L 50.364 94.396061 
L 51.108 94.795705 
L 52.596 95.739991 
L 53.34 96.031937 
L 54.084 96.142125 
L 54.828 96.046215 
L 55.572 95.738532 
L 56.316 95.211396 
L 57.06 94.439489 
L 59.664 91.160055 
L 60.408 90.636354 
L 61.152 90.464186 
L 61.896 90.586467 
L 64.128 91.300401 
L 65.244 91.256174 
L 67.104 90.821875 
L 69.708 90.170416 
L 70.824 90.231593 
L 74.172 90.928254 
L 75.66 90.769404 
L 77.148 90.423518 
L 78.264 89.995404 
L 79.38 89.372062 
L 81.24 88.003357 
L 82.728 86.97894 
L 84.588 86.007909 
L 86.076 85.182808 
L 87.936 83.754842 
L 89.052 83.00299 
L 90.168 82.526948 
L 91.656 82.23183 
L 92.772 82.196953 
L 93.888 82.421532 
L 95.004 82.992335 
L 96.492 84.141864 
L 100.584 87.742495 
L 102.444 89.737937 
L 104.676 92.160031 
L 105.792 93.093884 
L 106.908 93.687185 
L 107.652 93.8582 
L 108.396 93.85468 
L 109.512 93.603369 
L 115.836 91.644859 
L 117.324 91.494844 
L 118.812 91.59346 
L 120.3 91.922996 
L 121.416 92.475647 
L 122.532 93.424541 
L 126.252 97.235678 
L 127.368 97.784618 
L 128.484 98.00439 
L 129.228 98.006348 
L 129.228 98.006348 
" style="fill:none;stroke:#000000;stroke-linecap:round;stroke-width:2.25;"/>
   </g>
   <g id="line2d_8">
    <path clip-path="url(#pb3293c30c2)" d="M 18 91.2 
L 129.228 91.2 
L 129.228 91.2 
" style="fill:none;stroke:#000000;stroke-dasharray:8.325,3.6;stroke-dashoffset:0;stroke-width:2.25;"/>
   </g>
   <g id="patch_3">
    <path d="M 18 128.16 
L 18 17.28 
" style="fill:none;stroke:#262626;stroke-linecap:square;stroke-linejoin:miter;stroke-width:1.875;"/>
   </g>
   <g id="patch_4">
    <path d="M 18 128.16 
L 129.6 128.16 
" style="fill:none;stroke:#262626;stroke-linecap:square;stroke-linejoin:miter;stroke-width:1.875;"/>
   </g>
  </g>
 </g>
 <defs>
  <clipPath id="pb3293c30c2">
   <rect height="110.88" width="111.6" x="18" y="17.28"/>
  </clipPath>
 </defs>
</svg>
